<svg id="Group_11324" data-name="Group 11324" xmlns="http://www.w3.org/2000/svg" width="21" height="21" viewBox="0 0 21 21">
  <rect id="Rectangle_3470" data-name="Rectangle 3470" width="21" height="21" fill="none"/>
  <g id="Group_11323" data-name="Group 11323">
    <g id="Rectangle_3468" data-name="Rectangle 3468" transform="translate(0 7)" fill="none" stroke="#fff" stroke-width="1">
      <rect width="18" height="14" rx="4" stroke="none"/>
      <rect x="0.5" y="0.5" width="17" height="13" rx="3.5" fill="none"/>
    </g>
    <g id="Path_17247" data-name="Path 17247" transform="translate(7.5)" fill="rgba(255,255,255,0.5)">
      <path d="M3,0h7.5a3,3,0,0,1,3,3V8.25a3,3,0,0,1-3,3H3a3,3,0,0,1-3-3V3A3,3,0,0,1,3,0Z" stroke="none"/>
      <path d="M 3.000000953674316 1.200000762939453 C 2.007480621337891 1.200000762939453 1.200000762939453 2.007480621337891 1.200000762939453 3.000000953674316 L 1.200000762939453 8.25 C 1.200000762939453 9.242520332336426 2.007480621337891 10.05000019073486 3.000000953674316 10.05000019073486 L 10.5 10.05000019073486 C 11.49252033233643 10.05000019073486 12.30000019073486 9.242520332336426 12.30000019073486 8.25 L 12.30000019073486 3.000000953674316 C 12.30000019073486 2.007480621337891 11.49252033233643 1.200000762939453 10.5 1.200000762939453 L 3.000000953674316 1.200000762939453 M 3.000000953674316 9.5367431640625e-07 L 10.5 9.5367431640625e-07 C 12.15685081481934 9.5367431640625e-07 13.5 1.343140602111816 13.5 3.000000953674316 L 13.5 8.25 C 13.5 9.906850814819336 12.15685081481934 11.25 10.5 11.25 L 3.000000953674316 11.25 C 1.343140602111816 11.25 9.5367431640625e-07 9.906850814819336 9.5367431640625e-07 8.25 L 9.5367431640625e-07 3.000000953674316 C 9.5367431640625e-07 1.343140602111816 1.343140602111816 9.5367431640625e-07 3.000000953674316 9.5367431640625e-07 Z" stroke="none" fill="rgba(255,255,255,0.5)"/>
    </g>
  </g>
</svg>
