<svg xmlns="http://www.w3.org/2000/svg" width="130" height="130" viewBox="0 0 130 130">
    <g id="Group_11324" data-name="Group 11324" transform="translate(-0.302)">
    <rect
        id="Rectangle_3470"
        data-name="Rectangle 3470"
        width="130"
        height="130"
        transform="translate(0.302)"
        fill="none"
    />
    <g id="Group_11323" data-name="Group 11323">
        <g
        id="Rectangle_3468"
        data-name="Rectangle 3468"
        transform="translate(0.302 43)"
        fill="none"
        stroke="rgba(255,255,255,0.3)"
        stroke-width="5"
        >
        <rect width="111" height="87" rx="20" stroke="none" />
        <rect x="2.5" y="2.5" width="106" height="82" rx="17.5" fill="none" />
        </g>
        <g id="Path_17247" data-name="Path 17247" transform="translate(46.536)" fill="rgba(255,255,255,0.5)">
        <path
            d="M18.615,0H65.151A18.615,18.615,0,0,1,83.766,18.615V51.19A18.615,18.615,0,0,1,65.151,69.8H18.615A18.615,18.615,0,0,1,0,51.19V18.615A18.615,18.615,0,0,1,18.615,0Z"
            stroke="none"
        />
        <path
            d="M 18.61457061767578 5 C 14.97798919677734 5 11.55908203125 6.416172027587891 8.987617492675781 8.987617492675781 C 6.416175842285156 11.55907821655273 5.000007629394531 14.97798538208008 5.000007629394531 18.61457061767578 L 5.000007629394531 51.19007873535156 C 5.000007629394531 54.82666397094727 6.416175842285156 58.24557113647461 8.987617492675781 60.81703186035156 C 11.55908203125 63.38847732543945 14.97798919677734 64.80464935302734 18.61457061767578 64.80464935302734 L 65.1510009765625 64.80464935302734 C 68.78759002685547 64.80464935302734 72.20649719238281 63.38847732543945 74.77796173095703 60.81703186035156 C 77.34940338134766 58.24557113647461 78.76557159423828 54.82666397094727 78.76557159423828 51.19007873535156 L 78.76557159423828 18.61457061767578 C 78.76557159423828 14.97798538208008 77.34940338134766 11.55907821655273 74.77796173095703 8.987617492675781 C 72.20649719238281 6.416172027587891 68.78759002685547 5 65.1510009765625 5 L 18.61457061767578 5 M 18.61457061767578 0 L 65.1510009765625 0 C 75.43154144287109 0 83.76557159423828 8.334033966064453 83.76557159423828 18.61457061767578 L 83.76557159423828 51.19007873535156 C 83.76557159423828 61.47061920166016 75.43154144287109 69.80464935302734 65.1510009765625 69.80464935302734 L 18.61457061767578 69.80464935302734 C 8.334037780761719 69.80464935302734 7.62939453125e-06 61.47061920166016 7.62939453125e-06 51.19007873535156 L 7.62939453125e-06 18.61457061767578 C 7.62939453125e-06 8.334033966064453 8.334037780761719 0 18.61457061767578 0 Z"
            stroke="none"
            fill="rgba(255,255,255,0.5)"
        />
        </g>
    </g>
    </g>
</svg>