<svg id="コイン型のポイントアイコン" xmlns="http://www.w3.org/2000/svg" width="19.936" height="19.936" viewBox="0 0 19.936 19.936">
  <path id="Path_16956" data-name="Path 16956" d="M9.968,0a9.968,9.968,0,1,0,9.968,9.968A9.968,9.968,0,0,0,9.968,0Zm0,18.067a8.1,8.1,0,1,1,8.1-8.1A8.108,8.108,0,0,1,9.968,18.067Z" fill="#fff"/>
  <path id="Path_16957" data-name="Path 16957" d="M86.853,80a6.853,6.853,0,1,0,6.853,6.853A6.861,6.861,0,0,0,86.853,80Zm0,13.083a6.23,6.23,0,1,1,6.23-6.23A6.237,6.237,0,0,1,86.853,93.083Z" transform="translate(-76.885 -76.885)" fill="#fff"/>
  <path id="Path_16958" data-name="Path 16958" d="M199.3,173.109H197.3a.579.579,0,0,0-.579.579V179.6a.579.579,0,0,0,.579.579h.291a.579.579,0,0,0,.579-.579v-1.665H199.3a2.434,2.434,0,1,0,0-4.825Zm0,3.555h-1.135v-2.286H199.3a1.153,1.153,0,1,1,0,2.286Z" transform="translate(-189.059 -166.369)" fill="#fff"/>
</svg>
