<svg xmlns="http://www.w3.org/2000/svg" width="21.883" height="22.859" viewBox="0 0 21.883 22.859">
  <path id="Path_16904" data-name="Path 16904" d="M22.186.429,20.223-.7a8.877,8.877,0,0,0,0-3.235l1.963-1.134a.557.557,0,0,0,.253-.645,11.479,11.479,0,0,0-2.521-4.36.554.554,0,0,0-.682-.106L17.273-9.051a8.7,8.7,0,0,0-2.8-1.618v-2.263a.552.552,0,0,0-.433-.539,11.586,11.586,0,0,0-5.033,0,.552.552,0,0,0-.433.539v2.267a8.973,8.973,0,0,0-2.8,1.618L3.811-10.18a.548.548,0,0,0-.682.106A11.409,11.409,0,0,0,.608-5.714a.551.551,0,0,0,.253.645L2.825-3.935a8.878,8.878,0,0,0,0,3.235L.862.434a.557.557,0,0,0-.253.645,11.478,11.478,0,0,0,2.521,4.36.555.555,0,0,0,.682.106L5.775,4.411a8.7,8.7,0,0,0,2.8,1.618V8.3a.552.552,0,0,0,.433.539,11.585,11.585,0,0,0,5.033,0,.552.552,0,0,0,.433-.539V6.029a8.972,8.972,0,0,0,2.8-1.618l1.963,1.134a.548.548,0,0,0,.682-.106,11.409,11.409,0,0,0,2.521-4.36A.569.569,0,0,0,22.186.429Zm-10.664.936A3.692,3.692,0,0,1,7.835-2.322a3.692,3.692,0,0,1,3.687-3.687,3.692,3.692,0,0,1,3.687,3.687A3.692,3.692,0,0,1,11.522,1.365Z" transform="translate(-0.583 13.747)" fill="rgba(255,255,255,0.7)"/>
</svg>
