<svg xmlns="http://www.w3.org/2000/svg" xmlns:xlink="http://www.w3.org/1999/xlink" width="223.611" height="103.049" viewBox="0 0 223.611 103.049">
  <defs>
    <linearGradient id="linear-gradient" x1="0.232" y1="0.467" x2="0.797" y2="-0.223" gradientUnits="objectBoundingBox">
      <stop offset="0" stop-color="#f7f735"/>
      <stop offset="1" stop-color="#c3f735"/>
    </linearGradient>
    <filter id="Union_4" x="0" y="0" width="223.611" height="103.049" filterUnits="userSpaceOnUse">
      <feOffset input="SourceAlpha"/>
      <feGaussianBlur stdDeviation="3" result="blur"/>
      <feFlood flood-color="#f7f560" flood-opacity="0.4"/>
      <feComposite operator="in" in2="blur"/>
      <feComposite in="SourceGraphic"/>
    </filter>
  </defs>
  <g id="LV1_1st_deco_-_L" data-name="LV1 / 1st / deco - L" transform="translate(9 9)">
    <g transform="matrix(1, 0, 0, 1, -9, -9)" filter="url(#Union_4)">
      <g id="Union_4-2" data-name="Union 4" transform="translate(9.34 9.18)" fill="url(#linear-gradient)">
        <path d="M 41.82521438598633 84.62358093261719 C 39.98232650756836 84.62360382080078 38.18079376220703 84.16460418701172 36.46604156494141 83.25860595703125 C 38.8314094543457 79.70953369140625 42.15386199951172 77.68023681640625 45.61697769165039 77.68023681640625 C 47.41948318481445 77.68023681640625 49.23896789550781 78.21586608886719 51.02820587158203 79.27267456054688 C 50.39372253417969 80.50420379638672 49.43701553344727 81.61778259277344 48.24989700317383 82.50379180908203 C 46.97745132446289 83.45349884033203 45.46992492675781 84.11779022216797 43.89029312133789 84.42481231689453 C 43.21200561523438 84.55670928955078 42.51721572875977 84.62358093261719 41.82521438598633 84.62358093261719 Z M 163.1041564941406 84.62220764160156 C 159.2197875976563 84.62241363525391 155.55322265625 82.481689453125 153.9017639160156 79.27269744873047 C 155.6913757324219 78.21562194824219 157.5110778808594 77.67978668212891 159.3134460449219 77.67978668212891 C 159.8907165527344 77.67978668212891 160.47119140625 77.73576354980469 161.0387878417969 77.84610748291016 C 163.8747863769531 78.39742279052734 166.5030364990234 80.31501007080078 168.4639739990234 83.25685119628906 C 166.7493591308594 84.16295623779297 164.9476318359375 84.62210845947266 163.1041564941406 84.62220764160156 Z M 51.35605621337891 74.97315979003906 C 48.9190559387207 74.9732666015625 46.70071411132813 74.10507965087891 44.94081878662109 72.46241760253906 C 43.01542282104492 70.66531372070313 41.70520782470703 68.05002593994141 41.04399108886719 64.68550109863281 C 44.09666061401367 64.81063842773438 46.73343658447266 65.71990203857422 48.68566131591797 67.3236083984375 C 49.76487350463867 68.21018218994141 50.6102409362793 69.29737091064453 51.1982421875 70.55496978759766 C 51.80118942260742 71.84457397460938 52.13494110107422 73.31858062744141 52.19138336181641 74.93940734863281 C 51.91175079345703 74.96180725097656 51.63169097900391 74.97313690185547 51.35602951049805 74.97315979003906 L 51.35605621337891 74.97315979003906 Z M 153.5771026611328 74.97171020507813 C 153.3005981445313 74.97171020507813 153.0194854736328 74.96027374267578 152.7386169433594 74.93766784667969 C 152.7950592041016 73.31703948974609 153.1288146972656 71.84316253662109 153.7317657470703 70.5537109375 C 154.3197631835938 69.29623413085938 155.1651306152344 68.20918273925781 156.2443237304688 67.32273864746094 C 158.1966705322266 65.71910858154297 160.8334808349609 64.81016540527344 163.8860015869141 64.68545532226563 C 163.2249450683594 68.04915618896484 161.9151611328125 70.66390991210938 159.9903411865234 72.46086883544922 C 158.2309265136719 74.10344696044922 156.0132598876953 74.97165679931641 153.5771026611328 74.97171020507813 Z M 25.08000373840332 74.49199676513672 C 21.87760162353516 74.49202728271484 18.83094215393066 73.04362487792969 16.67931365966797 70.50807189941406 C 18.74097633361816 69.11445617675781 20.98476219177246 68.37923431396484 23.18445205688477 68.37923431396484 C 26.23648262023926 68.37923431396484 28.92779541015625 69.78861236572266 30.98081398010254 72.45806884765625 C 29.90949249267578 73.37335205078125 28.54545211791992 74.01099395751953 27.02076721191406 74.30697631835938 C 26.38960838317871 74.42973327636719 25.73666191101074 74.49197387695313 25.08000373840332 74.49199676513672 Z M 179.8491363525391 74.4912109375 C 177.6038818359375 74.49126434326172 175.4679412841797 73.75269317626953 173.9484252929688 72.4578857421875 C 176.0013580322266 69.78810119628906 178.6924133300781 68.37873840332031 181.7442626953125 68.37873840332031 C 182.3852081298828 68.37873840332031 183.0407409667969 68.44302368164063 183.6926879882813 68.56978607177734 C 185.246826171875 68.87240600585938 186.8173370361328 69.54091644287109 188.2505950927734 70.50813293457031 C 186.0988311767578 73.04286956787109 183.0517272949219 74.49115753173828 179.8491363525391 74.4912109375 Z M 33.83784103393555 69.35060119628906 C 31.69158554077148 68.64410400390625 29.78606033325195 66.94184112548828 28.58387184143066 64.64684295654297 C 27.1995735168457 62.00423049926758 26.93340301513672 58.95742034912109 27.82568740844727 56.03725433349609 C 30.3808650970459 57.21109008789063 32.39317321777344 59.06122970581055 33.50968933105469 61.27002716064453 C 34.74526214599609 63.71444702148438 34.85749053955078 66.50379943847656 33.83784103393555 69.35060119628906 Z M 171.0921325683594 69.35056304931641 C 170.0725402832031 66.50347137451172 170.1849670410156 63.71402740478516 171.4207916259766 61.26971054077148 C 172.5374145507813 59.0611686706543 174.5498352050781 57.21115112304688 177.1051635742188 56.03727340698242 C 177.9969940185547 58.95710372924805 177.7306518554688 62.00348281860352 176.3466339111328 64.64573669433594 C 175.1443939208984 66.94093322753906 173.2387084960938 68.6435546875 171.0921325683594 69.35056304931641 Z M 13.36103057861328 57.90913009643555 L 13.36100387573242 57.90913009643555 C 11.45537281036377 57.9092903137207 9.490504264831543 57.22773742675781 7.828319549560547 55.98997497558594 C 6.068603992462158 54.67958068847656 4.761264801025391 52.84130477905273 4.035466194152832 50.66147994995117 C 4.832552433013916 50.49747467041016 5.631495475769043 50.41442108154297 6.414109230041504 50.41442108154297 C 8.55350399017334 50.41442108154297 10.51750373840332 51.03189468383789 12.0937671661377 52.20007705688477 C 13.77844429016113 53.44857788085938 14.9616756439209 55.25068664550781 15.61308860778809 57.5589599609375 C 15.34464645385742 57.64762878417969 15.06681346893311 57.72005081176758 14.78434562683105 57.77489471435547 C 14.32605648040771 57.86394882202148 13.84718799591064 57.90910339355469 13.36103057861328 57.90913009643555 Z M 191.5695495605469 57.90884017944336 L 191.5695343017578 57.90884017944336 C 190.7776947021484 57.90888977050781 190.0211181640625 57.79123687744141 189.3169555664063 57.55884170532227 C 189.9683532714844 55.25054168701172 191.1515045166016 53.4484977722168 192.8360595703125 52.19994735717773 C 194.412353515625 51.0316047668457 196.3763732910156 50.41407775878906 198.5158233642578 50.41407775878906 C 199.2540588378906 50.41407775878906 200.0097961425781 50.48826217651367 200.7620544433594 50.63460540771484 C 200.8058776855469 50.64308166503906 200.8503112792969 50.65192794799805 200.8952178955078 50.66111373901367 C 200.1690979003906 52.84073638916016 198.8616790771484 54.67877197265625 197.1019744873047 55.98918533325195 C 195.4397735595703 57.22702789306641 193.4749755859375 57.90879058837891 191.5695495605469 57.90884017944336 Z M 185.5972595214844 55.79469299316406 C 184.0414581298828 54.64881134033203 183.0055847167969 52.91595840454102 182.6708984375 50.88910675048828 C 182.4419250488281 49.50247192382813 182.5345611572266 48.04063034057617 182.9461822509766 46.54418563842773 C 183.3551788330078 45.05746459960938 184.0607604980469 43.61126327514648 185.0451202392578 42.24133682250977 C 186.7545776367188 44.01554489135742 187.7677764892578 46.28903579711914 187.9058990478516 48.67452621459961 C 188.0514068603516 51.1879997253418 187.2538452148438 53.64487075805664 185.5972595214844 55.79469299316406 Z M 19.33271598815918 55.7946662902832 C 17.67632293701172 53.64536666870117 16.87863731384277 51.18852233886719 17.02410888671875 48.67520904541016 C 17.1622314453125 46.28969192504883 18.17542266845703 44.01598739624023 19.88491249084473 42.24136352539063 C 20.86915397644043 43.61114120483398 21.57464599609375 45.0571403503418 21.98355674743652 46.54376220703125 C 22.3951358795166 48.0400276184082 22.48776626586914 49.50176239013672 22.25887298583984 50.88836669921875 C 21.92425537109375 52.91547393798828 20.88844299316406 54.64860153198242 19.33271598815918 55.7946662902832 Z M 197.2192077636719 39.49665832519531 C 196.9755554199219 36.44454574584961 198.3017425537109 34.16567611694336 199.474609375 32.77957916259766 C 201.0094146728516 30.96572303771973 203.2003021240234 29.65000915527344 205.0100250244141 29.43589019775391 C 205.1292877197266 32.27116775512695 204.2009582519531 34.90443801879883 202.3816375732422 36.87531661987305 C 200.9281311035156 38.44988250732422 199.058837890625 39.39608001708984 197.2192077636719 39.49665832519531 Z M 7.710837364196777 39.49665832519531 C 5.871558666229248 39.39608001708984 4.002373695373535 38.44990921020508 2.548714399337769 36.87537002563477 C 0.729030430316925 34.90441513061523 -0.1996987164020538 32.27113723754883 -0.08087347447872162 29.43587875366211 C 1.729856014251709 29.65002059936523 3.921605110168457 30.96600341796875 5.456556797027588 32.78023529052734 C 6.629192352294922 34.16626739501953 7.955146312713623 36.44456100463867 7.710837364196777 39.49665832519531 Z M 191.9171295166016 39.31079483032227 C 189.8959045410156 38.53082275390625 188.3843841552734 37.13359069824219 187.537109375 35.25805282592773 C 186.5148010253906 32.99509429931641 186.5482940673828 30.19215202331543 187.6266174316406 27.3408374786377 C 189.2290496826172 28.04163360595703 191.2061462402344 29.60588836669922 192.2031860351563 32.02957916259766 C 193.1142883300781 34.24444198608398 193.0178070068359 36.69314575195313 191.9171295166016 39.31079483032227 Z M 13.01203060150146 39.31079483032227 C 11.91160297393799 36.69330978393555 11.81552600860596 34.24451065063477 12.72721481323242 32.02928924560547 C 13.72494029998779 29.6049976348877 15.70202255249023 28.04109191894531 17.30424308776855 27.34080505371094 C 18.38219261169434 30.19226837158203 18.41535186767578 32.9952507019043 17.39282035827637 35.25810623168945 C 16.54533386230469 37.13364410400391 15.03355979919434 38.53084564208984 13.01203060150146 39.31079483032227 Z M 13.23310947418213 22.21879005432129 C 13.03748321533203 22.21879005432129 12.83707523345947 22.21335220336914 12.63480949401855 22.20258903503418 C 12.70238018035889 20.42409133911133 13.54336261749268 18.61987113952637 14.96589851379395 17.21870994567871 C 16.56663513183594 15.64205265045166 18.70605659484863 14.77373695373535 20.99005699157715 14.77373695373535 C 21.05523872375488 14.77373695373535 21.12093162536621 14.77444648742676 21.18676948547363 14.77585887908936 C 21.0767765045166 16.22522354125977 20.5555477142334 17.73226737976074 19.7385311126709 18.94810485839844 C 18.63129425048828 20.59581565856934 17.00497817993164 21.66915702819824 15.03539848327637 22.05210494995117 C 14.46779346466064 22.16271018981934 13.86145114898682 22.21879005432129 13.23310947418213 22.21879005432129 Z M 191.6986694335938 22.21870994567871 C 190.3245849609375 22.21879005432129 189.0825805664063 21.95299911499023 188.0071563720703 21.42868423461914 C 187.0665893554688 20.9701042175293 186.2495880126953 20.31336784362793 185.5788726806641 19.47673606872559 C 184.5467987060547 18.1893310546875 183.8702087402344 16.44923973083496 183.7432250976563 14.77595996856689 C 183.8087921142578 14.77456951141357 183.8741912841797 14.77386856079102 183.9390869140625 14.77386856079102 C 184.5103912353516 14.77386856079102 185.0782623291016 14.82786846160889 185.6268768310547 14.93431568145752 C 187.5076293945313 15.30018424987793 189.2258453369141 16.30255317687988 190.4649200439453 17.75679016113281 C 191.5923156738281 19.07996559143066 192.2372283935547 20.64989471435547 192.2960815429688 22.20256233215332 C 192.0942840576172 22.21327209472656 191.8941802978516 22.21869087219238 191.6986694335938 22.21870994567871 Z M 196.3998718261719 20.14045524597168 C 195.4823455810547 18.14165878295898 195.3743286132813 16.05439186096191 196.0894317626953 14.09036827087402 C 196.9245147705078 11.79672145843506 198.7189483642578 10.0842752456665 200.2116241455078 9.333063125610352 C 201.201904296875 11.80230617523193 201.2027435302734 14.43725490570068 200.2061309814453 16.6004467010498 C 199.420166015625 18.30644035339355 198.0738372802734 19.55624008178711 196.3998718261719 20.14045524597168 Z M 8.530983924865723 20.14043807983398 C 6.857004642486572 19.55620956420898 5.510739326477051 18.30655288696289 4.724793434143066 16.60076332092285 C 3.728188991546631 14.43777465820313 3.729015111923218 11.80273056030273 4.719315528869629 9.333097457885742 C 6.211354732513428 10.08423709869385 8.005071640014648 11.79656887054443 8.840293884277344 14.09031581878662 C 9.555500030517578 16.05444526672363 9.447778701782227 18.14189910888672 8.530983924865723 20.14043807983398 Z M 189.8575592041016 10.00578212738037 C 187.4859008789063 9.333623886108398 186.0973205566406 7.652194499969482 185.3444213867188 6.338973522186279 C 184.2330780029297 4.400575160980225 183.7702484130859 1.89880096912384 184.1795043945313 0.1426644027233124 C 186.3720092773438 0.8585583567619324 188.1463470458984 2.355230331420898 189.1943206787109 4.379789352416992 C 190.1440887451172 6.21464204788208 190.3814544677734 8.250741004943848 189.8575592041016 10.00578212738037 Z M 15.07327938079834 10.00311279296875 C 14.54929256439209 8.249457359313965 14.78631973266602 6.214502334594727 15.73545169830322 4.380078792572021 C 16.78348159790039 2.354504823684692 18.55825233459473 0.8571195602416992 20.75140571594238 0.1408703774213791 C 21.16068840026855 1.897219300270081 20.69776916503906 4.399073600769043 19.58624076843262 6.337447166442871 C 18.83326721191406 7.650521278381348 17.44499969482422 9.331543922424316 15.07327938079834 10.00311279296875 Z" stroke="none"/>
        <path d="M 41.82521438598633 84.37358093261719 C 42.50121307373047 84.37358093261719 43.17995071411133 84.30823516845703 43.84260940551758 84.17939758300781 C 46.77595901489258 83.6092529296875 49.35908889770508 81.78426361083984 50.69391632080078 79.36805725097656 C 49.01071929931641 78.41364288330078 47.30485534667969 77.93023681640625 45.61697769165039 77.93023681640625 C 42.31497192382813 77.93023681640625 39.13798522949219 79.83091735839844 36.83148193359375 83.16542816162109 C 38.43499374389648 83.96749114990234 40.11231231689453 84.37360382080078 41.82521438598633 84.37358093261719 M 163.1041564941406 84.37220764160156 C 164.8175964355469 84.37211608886719 166.4951324462891 83.96587371826172 168.0985412597656 83.1636962890625 C 166.1932373046875 80.40918731689453 163.6859741210938 78.61538696289063 160.9910888671875 78.09152984619141 C 160.4391021728516 77.98420715332031 159.8746948242188 77.92978668212891 159.3134460449219 77.92978668212891 C 157.6255798339844 77.92978668212891 155.9195098876953 78.41338348388672 154.2358551025391 79.36817932128906 C 155.894775390625 82.37905883789063 159.3969116210938 84.37241363525391 163.1041564941406 84.37220764160156 M 153.5771026611328 75.22171020507813 L 153.5771026611328 74.72171020507813 C 155.9487915039063 74.72168731689453 158.1074523925781 73.87668609619141 159.8197479248047 72.27812957763672 C 161.6452484130859 70.57389068603516 162.9075622558594 68.11102294921875 163.5766143798828 64.95130920410156 C 160.7146759033203 65.12210083007813 158.2447204589844 66.00316619873047 156.4029998779297 67.51592254638672 C 155.3528442382813 68.37850189208984 154.5303192138672 69.43618774414063 153.9582366943359 70.65960693359375 C 153.3996124267578 71.85424041748047 153.0776062011719 73.2132568359375 152.9990234375 74.70503234863281 C 153.1928863525391 74.71612548828125 153.3861236572266 74.72171020507813 153.5771026611328 74.72171020507813 L 153.5771026611328 75.22171020507813 M 51.35602951049805 74.72315979003906 C 51.54605865478516 74.72314453125 51.73826217651367 74.71761322021484 51.93097305297852 74.70665740966797 C 51.85239410400391 73.21468353271484 51.53039932250977 71.85562133789063 50.97176742553711 70.66086578369141 C 50.39968872070313 69.43731689453125 49.5771369934082 68.37950134277344 48.5269775390625 67.51679229736328 C 46.68535995483398 66.00393676757813 44.21547698974609 65.12261962890625 41.35338973999023 64.95140838623047 C 42.02261734008789 68.11186981201172 43.28532791137695 70.57527160644531 45.11140060424805 72.27965545654297 C 46.82416152954102 73.87831878662109 48.9835319519043 74.7232666015625 51.35602951049805 74.72315979003906 M 25.08000373840332 74.24199676513672 L 25.07997703552246 74.24199676513672 C 25.72068786621094 74.24197387695313 26.35755729675293 74.18128967285156 26.97310829162598 74.06155395507813 C 28.36893653869629 73.79057312011719 29.62479400634766 73.22633361816406 30.63372421264648 72.42056274414063 C 28.64935874938965 69.93785858154297 26.08277702331543 68.62923431396484 23.18445205688477 68.62923431396484 C 21.11821937561035 68.62923431396484 19.00973320007324 69.29476165771484 17.05510902404785 70.55925750732422 C 19.14672660827637 72.90666961669922 22.04214859008789 74.24202728271484 25.08000373840332 74.24199676513672 M 179.8491363525391 74.2412109375 C 182.8871917724609 74.24115753173828 185.7828063964844 72.90617370605469 187.8745574951172 70.55953216552734 C 186.5337219238281 69.69488525390625 185.0815734863281 69.09491729736328 183.6449584960938 68.81520843505859 C 183.0086822509766 68.69147491455078 182.3691864013672 68.62873840332031 181.7442626953125 68.62873840332031 C 178.8463287353516 68.62873840332031 176.2799682617188 69.93739318847656 174.2957458496094 72.42006683349609 C 175.7565002441406 73.58216094970703 177.7526397705078 74.24125671386719 179.8491363525391 74.2412109375 M 33.68371963500977 69.03232574462891 C 34.5914192199707 66.33313751220703 34.4565544128418 63.69743347167969 33.28655624389648 61.38281631469727 C 32.23389434814453 59.30025482177734 30.36279106140137 57.54240798950195 27.98355293273926 56.38822174072266 C 27.20993804931641 59.15969848632813 27.4957160949707 62.03081512451172 28.80531883239746 64.53084564208984 C 29.93379974365234 66.68512725830078 31.69376945495605 68.30241394042969 33.68371963500977 69.03232574462891 M 171.2462768554688 69.03224182128906 C 173.2365264892578 68.30187225341797 174.9966583251953 66.68421936035156 176.1251831054688 64.52973937988281 C 177.4345245361328 62.03005599975586 177.720458984375 59.15942001342773 176.9472961425781 56.38824462890625 C 174.5678863525391 57.54248046875 172.6966857910156 59.30020904541016 171.6439056396484 61.38249969482422 C 170.4736785888672 63.69704437255859 170.3386077880859 66.33279418945313 171.2462768554688 69.03224182128906 M 13.36100387573242 57.65913009643555 C 13.83121490478516 57.65910339355469 14.29405689239502 57.61550140380859 14.7366886138916 57.52947235107422 C 14.92862319946289 57.49220657348633 15.11826992034912 57.446533203125 15.30405521392822 57.39289855957031 C 14.65543365478516 55.25114822387695 13.52685260772705 53.57331466674805 11.94492530822754 52.40094757080078 C 10.41200351715088 51.26489639282227 8.499504089355469 50.66442108154297 6.414109230041504 50.66442108154297 C 5.739977836608887 50.66442108154297 5.053285121917725 50.72745132446289 4.366097927093506 50.85209655761719 C 5.091460704803467 52.86512756347656 6.332208156585693 54.56418228149414 7.977635383605957 55.78944778442383 C 9.596951484680176 56.99528884887695 11.50879383087158 57.6592903137207 13.36097812652588 57.65913009643555 L 13.36100387573242 57.65913009643555 M 191.5695343017578 57.65884017944336 C 193.4215545654297 57.65879058837891 195.3333129882813 56.99460601806641 196.9526672363281 55.7886848449707 C 198.5980834960938 54.5633544921875 199.8388519287109 52.86470413208008 200.5645141601563 50.85184097290039 C 199.8776245117188 50.72722625732422 199.1891479492188 50.66407775878906 198.5158233642578 50.66407775878906 C 196.4303741455078 50.66407775878906 194.517822265625 51.26463317871094 192.9849243164063 52.40079116821289 C 191.4031219482422 53.57320785522461 190.2746124267578 55.25094604492188 189.6259918212891 57.39274978637695 C 190.2386474609375 57.56951141357422 190.8903656005859 57.65888595581055 191.5695343017578 57.65884017944336 M 185.5487823486328 55.44393539428711 C 187.0663757324219 53.39038467407227 187.7938385009766 51.0645637512207 187.6562957763672 48.68897247314453 C 187.5273590087891 46.4614372253418 186.6150665283203 44.33340072631836 185.0726623535156 42.63661956787109 C 184.1969604492188 43.90792846679688 183.5636138916016 45.24225997924805 183.1872406005859 46.61050033569336 C 182.7852630615234 48.07184219360352 182.6945343017578 49.49765777587891 182.9175567626953 50.84836959838867 C 183.2319946289063 52.75263214111328 184.1382904052734 54.33174514770508 185.5487823486328 55.44393539428711 M 19.38114738464355 55.44392013549805 C 20.79160118103027 54.33154296875 21.69783020019531 52.75216674804688 22.01221466064453 50.84765625 C 22.23516273498535 49.49697494506836 22.14442443847656 48.07123565673828 21.74250411987305 46.61007690429688 C 21.36617469787598 45.2419319152832 20.73299217224121 43.90781402587891 19.85738182067871 42.63665771484375 C 18.31497573852539 44.33382415771484 17.40265464782715 46.46209716796875 17.27371406555176 48.68965911865234 C 17.13616943359375 51.06522369384766 17.86356353759766 53.3907470703125 19.38114738464355 55.44392013549805 M 7.478044986724854 39.22833633422852 C 7.626423835754395 36.38526153564453 6.375519275665283 34.25349044799805 5.265687942504883 32.94171142578125 C 3.652214527130127 31.0346622467041 1.635764837265015 29.99347877502441 0.1606435030698776 29.72587966918945 C 0.1150609627366066 32.38729095458984 1.018200397491455 34.84906768798828 2.732398748397827 36.70578765869141 C 4.076868057250977 38.16205596923828 5.783517360687256 39.06386566162109 7.478044986724854 39.22833633422852 M 197.4520568847656 39.22833633422852 C 199.1468811035156 39.06386184692383 200.8536224365234 38.16202926635742 202.1979217529297 36.70573806762695 C 203.9117736816406 34.84911346435547 204.8145294189453 32.38736343383789 204.7685546875 29.72591590881348 C 203.2942504882813 29.99356269836426 201.2786712646484 31.03453636169434 199.6654510498047 32.94107818603516 C 198.5553436279297 34.25300979614258 197.3040771484375 36.38498687744141 197.4520568847656 39.22833633422852 M 13.14920330047607 38.98628616333008 C 14.99435043334961 38.21528625488281 16.37724685668945 36.89847183227539 17.16500473022461 35.15515899658203 C 18.13002586364746 33.01959609985352 18.12583541870117 30.38213729858398 17.16280174255371 27.68076515197754 C 15.65451908111572 28.40703964233398 13.87837982177734 29.8890380859375 12.95839881896973 32.12442016601563 C 12.09937477111816 34.21173477172852 12.16393566131592 36.51812744140625 13.14920330047607 38.98628616333008 M 191.7799377441406 38.98627853393555 C 192.7654724121094 36.51797485351563 192.8304748535156 34.21165084838867 191.9719848632813 32.12471008300781 C 191.0526428222656 29.88985061645508 189.2764739990234 28.40757751464844 187.7680053710938 27.68086051940918 C 186.8046112060547 30.3820972442627 186.8001251220703 33.01947021484375 187.7649230957031 35.15513229370117 C 188.552490234375 36.89844512939453 189.9350738525391 38.21525573730469 191.7799377441406 38.98627853393555 M 13.23310947418213 21.96879005432129 C 13.84542465209961 21.96879005432129 14.43568801879883 21.91426277160645 14.9876880645752 21.80668449401855 C 16.91779327392578 21.43142127990723 18.44637298583984 20.42273712158203 19.53103065490723 18.80865859985352 C 20.4974250793457 17.37053298950195 20.81100654602051 15.90186500549316 20.91112899780273 15.02409362792969 C 18.72279357910156 15.04379463195801 16.67660713195801 15.88464641571045 15.1413459777832 17.39681625366211 C 13.83037185668945 18.68806457519531 13.02960395812988 20.32941818237305 12.89925575256348 21.96354293823242 C 13.01175212860107 21.96703338623047 13.12320232391357 21.96879005432129 13.23310947418213 21.96879005432129 M 191.6986694335938 21.96870994567871 L 191.6986389160156 21.96870994567871 C 191.8083190917969 21.96869850158691 191.9195098876953 21.96694946289063 192.0316619873047 21.96348190307617 C 191.9190826416016 20.5483570098877 191.3052215576172 19.12847709655762 190.2746429443359 17.91892051696777 C 189.0721282958984 16.50763130187988 187.4045257568359 15.53481578826904 185.5792388916016 15.17973709106445 C 185.0718078613281 15.08127117156982 184.5472412109375 15.02901172637939 184.0188446044922 15.02423000335693 C 184.3248291015625 17.68495178222656 186.2113800048828 21.96907997131348 191.6986694335938 21.96870994567871 M 196.5327301025391 19.8247184753418 C 198.0422058105469 19.23348617553711 199.2559814453125 18.06534385681152 199.9790802001953 16.49584197998047 C 200.9121551513672 14.47054767608643 200.9433441162109 12.01557731628418 200.0799560546875 9.686286926269531 C 198.6865386962891 10.47010803222656 197.091064453125 12.07003688812256 196.3243408203125 14.17589473724365 C 195.6473999023438 16.03514671325684 195.7178802490234 17.93345260620117 196.5327301025391 19.8247184753418 M 8.398070335388184 19.82468414306641 C 9.212436676025391 17.93356513977051 9.282498359680176 16.03536415100098 8.605372428894043 14.17584228515625 C 7.838519096374512 12.06991291046143 6.243773937225342 10.47011375427246 4.850950717926025 9.686387062072754 C 3.987562417984009 12.01603412628174 4.018781185150146 14.47106075286865 4.951846122741699 16.49615859985352 C 5.674868583679199 18.06536293029785 6.88871955871582 19.23343086242676 8.398070335388184 19.82468414306641 M 189.6839599609375 9.691976547241211 C 190.0901031494141 8.068202018737793 189.8350677490234 6.161524772644043 188.9722900390625 4.494710445404053 C 187.9978485107422 2.612214803695679 186.3759613037109 1.199589729309082 184.3697662353516 0.4725698530673981 C 184.1265716552734 1.923345804214478 184.3861236572266 4.164862632751465 185.5612945556641 6.2146315574646 C 186.2647399902344 7.441563129425049 187.5394287109375 8.999860763549805 189.6839599609375 9.691976547241211 M 15.24686527252197 9.689394950866699 C 17.39117431640625 8.997718811035156 18.66593170166016 7.439789295196533 19.3693733215332 6.21307897567749 C 20.54482650756836 4.163239002227783 20.80445289611816 1.921695947647095 20.5611400604248 0.4707866013050079 C 18.55438232421875 1.198156952857971 16.93199157714844 2.611530303955078 15.95750427246094 4.494973659515381 C 15.09528636932373 6.161379337310791 14.84060001373291 8.066933631896973 15.24686527252197 9.689394950866699 M 41.82521438598633 84.87358093261719 C 39.96942520141602 84.87360382080078 38.01710891723633 84.40852355957031 36.10800552368164 83.3489990234375 C 38.37625503540039 79.82421875 41.7592658996582 77.43023681640625 45.61698150634766 77.43023681640625 C 47.44570922851563 77.43023681640625 49.38037872314453 77.96765899658203 51.35490036010742 79.17749786376953 C 50.0427131652832 81.90360260009766 47.25811004638672 84.02489471435547 43.93800354003906 84.67021179199219 C 43.25389862060547 84.80323791503906 42.54679489135742 84.87358093261719 41.82521438598633 84.87358093261719 Z M 163.1041870117188 84.87220764160156 C 158.8811645507813 84.87244415283203 155.1575622558594 82.46497344970703 153.5751037597656 79.17749786376953 C 155.5495758056641 77.96764373779297 157.4850463867188 77.42979431152344 159.3134613037109 77.42979431152344 C 159.9169921875 77.42979431152344 160.5086975097656 77.48836517333984 161.0865020751953 77.6007080078125 C 164.2023010253906 78.20639801025391 166.9086151123047 80.37449645996094 168.8220062255859 83.34721374511719 C 166.9129180908203 84.40697479248047 164.9600830078125 84.87210845947266 163.1041870117188 84.87220764160156 Z M 51.35605621337891 75.22315979003906 C 46.57534790039063 75.22336578369141 42.11318969726563 71.94755554199219 40.74029159545898 64.42560577392578 C 46.87471389770508 64.56960296630859 52.31429290771484 67.91400146484375 52.44750213623047 75.16710662841797 C 52.08282089233398 75.20431518554688 51.71829223632813 75.22312927246094 51.35605621337891 75.22315979003906 Z M 153.5771026611328 75.22171020507813 C 153.2136383056641 75.22171020507813 152.8484497070313 75.20276641845703 152.4824981689453 75.16529083251953 C 152.6157073974609 67.91310882568359 158.0552978515625 64.56871032714844 164.1896820068359 64.42560577392578 C 162.8171844482422 71.94557952880859 158.3564300537109 75.22163391113281 153.5771026611328 75.22171020507813 Z M 25.08000373840332 74.74199676513672 C 22.00831985473633 74.74202728271484 18.71405601501465 73.42008209228516 16.31250381469727 70.4573974609375 C 18.41994285583496 68.97454071044922 20.81575584411621 68.12923431396484 23.18443870544434 68.12923431396484 C 26.1436653137207 68.12923431396484 29.06055641174316 69.44855499267578 31.32000350952148 72.49231719970703 C 30.17789840698242 73.53089141845703 28.69561004638672 74.23650360107422 27.06839942932129 74.55239105224609 C 26.42447853088379 74.67762756347656 25.75760841369629 74.74197387695313 25.08000373840332 74.74199676513672 Z M 179.8491363525391 74.7412109375 C 177.4593200683594 74.74126434326172 175.2043914794922 73.94149780273438 173.6091156005859 72.49231719970703 C 175.8683471679688 69.44840240478516 178.7852935791016 68.12873840332031 181.7442779541016 68.12873840332031 C 182.4099578857422 68.12873840332031 183.0774230957031 68.19546508789063 183.7404022216797 68.32439422607422 C 185.4369049072266 68.65470886230469 187.1018981933594 69.39089202880859 188.6175079345703 70.4573974609375 C 186.2156066894531 73.41965484619141 182.9209747314453 74.74115753173828 179.8491363525391 74.7412109375 Z M 170.9396820068359 69.65999603271484 C 168.5277099609375 63.28439331054688 171.9333190917969 58.01578903198242 177.2586059570313 55.69470977783203 C 179.3843994140625 62.1306037902832 175.6611022949219 68.26770782470703 170.9396820068359 69.65999603271484 Z M 33.99029159545898 69.65999603271484 C 29.26889801025391 68.26860809326172 25.54560852050781 62.1306037902832 27.67229270935059 55.69470977783203 C 32.99760818481445 58.01578903198242 36.40232086181641 63.2852897644043 33.99029159545898 69.65999603271484 Z M 13.36103057861328 58.15913009643555 C 9.533872604370117 58.15947341918945 5.252004146575928 55.47023773193359 3.713398694992065 50.47560501098633 C 4.615304946899414 50.26948165893555 5.522367000579834 50.1644172668457 6.41411018371582 50.1644172668457 C 10.65419864654541 50.1644172668457 14.54958534240723 52.53941345214844 15.91560935974121 57.7178955078125 C 15.56550407409668 57.84749984741211 15.20279312133789 57.94831466674805 14.83200359344482 58.02031707763672 C 14.35445117950439 58.11310577392578 13.86129379272461 58.15910339355469 13.36103057861328 58.15913009643555 Z M 191.5695495605469 58.15884017944336 C 190.6797332763672 58.15889358520508 189.8148193359375 58.01350021362305 189.014404296875 57.7178955078125 C 190.3803863525391 52.53950881958008 194.275390625 50.16407775878906 198.5158233642578 50.16407775878906 C 199.2736053466797 50.16407775878906 200.0424041748047 50.23993301391602 200.8097991943359 50.38920974731445 C 200.94482421875 50.41531372070313 201.0816040039063 50.4441032409668 201.2174987792969 50.47470855712891 C 199.6782073974609 55.46931457519531 195.396240234375 58.15871047973633 191.5695495605469 58.15884017944336 Z M 185.6466064453125 56.13660430908203 C 181.5794982910156 53.34120941162109 181.0413208007813 47.18160629272461 185.0166168212891 41.85721206665039 C 188.8281097412109 45.60570907592773 189.3654022216797 51.48989486694336 185.6466064453125 56.13660430908203 Z M 19.28339958190918 56.13660430908203 C 15.56460952758789 51.49081420898438 16.10189819335938 45.60660552978516 19.91339874267578 41.85721206665039 C 23.88871383666992 47.18160629272461 23.349609375 53.34120941162109 19.28339958190918 56.13660430908203 Z M 196.9920043945313 39.75481414794922 C 196.3512115478516 33.64020919799805 201.8754272460938 29.37239456176758 205.2459259033203 29.16360473632813 C 205.6365051269531 35.26200103759766 201.2211151123047 39.68729019165039 196.9920043945313 39.75481414794922 Z M 7.938004016876221 39.75481414794922 C 3.709793329238892 39.68729019165039 -0.7064960598945618 35.26200103759766 -0.3168118298053741 29.16360473632813 C 3.055504083633423 29.37239456176758 8.579714775085449 33.64020919799805 7.938004016876221 39.75481414794922 Z M 192.0528259277344 39.62789535522461 C 187.1352081298828 37.87020874023438 185.2245025634766 32.69250106811523 187.4862213134766 27.01171112060547 C 190.6281127929688 28.25099945068359 195.0921020507813 32.72131729125977 192.0528259277344 39.62789535522461 Z M 12.87629318237305 39.62789535522461 C 9.837898254394531 32.72220993041992 14.30279350280762 28.2501049041748 17.4447135925293 27.01171112060547 C 19.70550346374512 32.69250106811523 17.7947940826416 37.87020874023438 12.87629318237305 39.62789535522461 Z M 13.23310947418213 22.46879005432129 C 12.95716190338135 22.46879005432129 12.67308330535889 22.45842170715332 12.38039875030518 22.4370002746582 C 12.378662109375 18.59762573242188 15.93910503387451 14.52374649047852 20.99004936218262 14.52374649047852 C 21.14282035827637 14.52374649047852 21.29606246948242 14.52744293212891 21.45150375366211 14.53499984741211 C 21.33629417419434 17.21789360046387 19.67489814758301 21.40471076965332 15.08310890197754 22.29750061035156 C 14.51231956481934 22.40873718261719 13.89653015136719 22.46879005432129 13.23310947418213 22.46879005432129 Z M 191.6986846923828 22.46870994567871 C 185.690185546875 22.4691047668457 183.6075897216797 17.5512638092041 183.4785003662109 14.53499984741211 C 183.6333618164063 14.52754878997803 183.7869567871094 14.52387619018555 183.9390716552734 14.52387619018555 C 184.5401306152344 14.52387619018555 185.1193237304688 14.5811595916748 185.6744995117188 14.68889427185059 C 189.7875061035156 15.48899936676025 192.5513916015625 19.05478858947754 192.5505065917969 22.4370002746582 C 192.2584533691406 22.45834159851074 191.9740600585938 22.46868324279785 191.6986846923828 22.46870994567871 Z M 196.2684020996094 20.44710540771484 C 193.58642578125 14.9417896270752 197.4833984375 10.26810550689697 200.3418121337891 8.99460506439209 C 202.4505004882813 13.90950012207031 200.5317077636719 19.11870956420898 196.2684020996094 20.44710540771484 Z M 8.662504196166992 20.44710540771484 C 4.399214267730713 19.11870956420898 2.480398654937744 13.9103946685791 4.589109420776367 8.99460506439209 C 7.446609020233154 10.26810550689697 11.34268856048584 14.94270992279053 8.662504196166992 20.44710540771484 Z M 190.0233001708984 10.3086051940918 C 184.8554992675781 9.018894195556641 183.1157989501953 2.857499837875366 184.0041046142578 -0.1736844182014465 C 189.0828247070313 1.328394532203674 191.2977142333984 6.56281566619873 190.0233001708984 10.3086051940918 Z M 14.90760898590088 10.30589485168457 C 13.63229370117188 6.560999870300293 15.84900379180908 1.326605081558228 20.92679405212402 -0.1755001991987228 C 21.81510925292969 2.85571026802063 20.07539939880371 9.017105102539063 14.90760898590088 10.30589485168457 Z" stroke="none" fill="#ffff65"/>
      </g>
    </g>
  </g>
</svg>
