<svg xmlns="http://www.w3.org/2000/svg" xmlns:xlink="http://www.w3.org/1999/xlink" width="72.569" height="107.341" viewBox="0 0 72.569 107.341">
  <defs>
    <linearGradient id="linear-gradient" x1="0.232" y1="0.467" x2="0.797" y2="-0.223" gradientUnits="objectBoundingBox">
      <stop offset="0" stop-color="#f7f735"/>
      <stop offset="1" stop-color="#c3f735"/>
    </linearGradient>
    <filter id="Path_16834" x="30.118" y="0" width="27.585" height="28.497" filterUnits="userSpaceOnUse">
      <feOffset input="SourceAlpha"/>
      <feGaussianBlur stdDeviation="3" result="blur"/>
      <feFlood flood-color="#f7f560" flood-opacity="0.4"/>
      <feComposite operator="in" in2="blur"/>
      <feComposite in="SourceGraphic"/>
    </filter>
    <filter id="Path_16836" x="40.237" y="9.152" width="29.949" height="29.593" filterUnits="userSpaceOnUse">
      <feOffset input="SourceAlpha"/>
      <feGaussianBlur stdDeviation="3" result="blur-2"/>
      <feFlood flood-color="#f7f560" flood-opacity="0.4"/>
      <feComposite operator="in" in2="blur-2"/>
      <feComposite in="SourceGraphic"/>
    </filter>
    <filter id="Path_16838" x="43.432" y="29.32" width="29.136" height="28.674" filterUnits="userSpaceOnUse">
      <feOffset input="SourceAlpha"/>
      <feGaussianBlur stdDeviation="3" result="blur-3"/>
      <feFlood flood-color="#f7f560" flood-opacity="0.4"/>
      <feComposite operator="in" in2="blur-3"/>
      <feComposite in="SourceGraphic"/>
    </filter>
    <filter id="Path_16840" x="36.878" y="48.482" width="30.218" height="29.651" filterUnits="userSpaceOnUse">
      <feOffset input="SourceAlpha"/>
      <feGaussianBlur stdDeviation="3" result="blur-4"/>
      <feFlood flood-color="#f7f560" flood-opacity="0.4"/>
      <feComposite operator="in" in2="blur-4"/>
      <feComposite in="SourceGraphic"/>
    </filter>
    <filter id="Path_16842" x="21.442" y="64.31" width="33.055" height="32.747" filterUnits="userSpaceOnUse">
      <feOffset input="SourceAlpha"/>
      <feGaussianBlur stdDeviation="3" result="blur-5"/>
      <feFlood flood-color="#f7f560" flood-opacity="0.4"/>
      <feComposite operator="in" in2="blur-5"/>
      <feComposite in="SourceGraphic"/>
    </filter>
    <filter id="Path_16844" x="1.377" y="73.588" width="33.327" height="33.753" filterUnits="userSpaceOnUse">
      <feOffset input="SourceAlpha"/>
      <feGaussianBlur stdDeviation="3" result="blur-6"/>
      <feFlood flood-color="#f7f560" flood-opacity="0.4"/>
      <feComposite operator="in" in2="blur-6"/>
      <feComposite in="SourceGraphic"/>
    </filter>
    <filter id="Path_16846" x="0" y="64.601" width="30.432" height="28.842" filterUnits="userSpaceOnUse">
      <feOffset input="SourceAlpha"/>
      <feGaussianBlur stdDeviation="3" result="blur-7"/>
      <feFlood flood-color="#f7f560" flood-opacity="0.4"/>
      <feComposite operator="in" in2="blur-7"/>
      <feComposite in="SourceGraphic"/>
    </filter>
    <filter id="Path_16848" x="14.673" y="55.871" width="32.634" height="32.028" filterUnits="userSpaceOnUse">
      <feOffset input="SourceAlpha"/>
      <feGaussianBlur stdDeviation="3" result="blur-8"/>
      <feFlood flood-color="#f7f560" flood-opacity="0.4"/>
      <feComposite operator="in" in2="blur-8"/>
      <feComposite in="SourceGraphic"/>
    </filter>
    <filter id="Path_16850" x="25.981" y="42.034" width="32.369" height="32.369" filterUnits="userSpaceOnUse">
      <feOffset input="SourceAlpha"/>
      <feGaussianBlur stdDeviation="3" result="blur-9"/>
      <feFlood flood-color="#f7f560" flood-opacity="0.4"/>
      <feComposite operator="in" in2="blur-9"/>
      <feComposite in="SourceGraphic"/>
    </filter>
    <filter id="Path_16852" x="31.167" y="27.16" width="30.941" height="30.713" filterUnits="userSpaceOnUse">
      <feOffset input="SourceAlpha"/>
      <feGaussianBlur stdDeviation="3" result="blur-10"/>
      <feFlood flood-color="#f7f560" flood-opacity="0.4"/>
      <feComposite operator="in" in2="blur-10"/>
      <feComposite in="SourceGraphic"/>
    </filter>
    <filter id="Path_16854" x="31.32" y="13.606" width="27.17" height="28.11" filterUnits="userSpaceOnUse">
      <feOffset input="SourceAlpha"/>
      <feGaussianBlur stdDeviation="3" result="blur-11"/>
      <feFlood flood-color="#f7f560" flood-opacity="0.4"/>
      <feComposite operator="in" in2="blur-11"/>
      <feComposite in="SourceGraphic"/>
    </filter>
  </defs>
  <g id="Group_7248" data-name="Group 7248" transform="translate(52.346 105.197) rotate(-169)">
    <g transform="matrix(-0.98, 0.19, -0.19, -0.98, 71.46, 93.28)" filter="url(#Path_16834)">
      <g id="Path_16834-2" data-name="Path 16834" transform="translate(46.96 19.49) rotate(-169)" fill="url(#linear-gradient)">
        <path d="M 7.733329296112061 8.861578941345215 C 5.443902969360352 8.576902389526367 3.416154623031616 7.445787906646729 2.001096725463867 5.657749176025391 C 0.719346821308136 4.038159370422363 0.09835197776556015 2.085512161254883 0.2780343592166901 0.2636636197566986 C 2.734071969985962 0.4706340134143829 4.41794490814209 1.856141686439514 5.407596588134766 3.001589298248291 C 6.868495464324951 4.692448139190674 7.800114154815674 7.059831619262695 7.733329296112061 8.861578941345215 Z" stroke="none"/>
        <path d="M 0.5082902908325195 0.5385217666625977 C 0.4191417694091797 2.209105014801025 1.032778739929199 4.031353950500488 2.197136878967285 5.502609252929688 C 3.512905120849609 7.165184497833252 5.375015258789063 8.242878913879395 7.483610153198242 8.574031829833984 C 7.445652484893799 7.103694438934326 6.76323127746582 4.953017711639404 5.218426704406738 3.165029525756836 C 4.293811798095703 2.094854354858398 2.745185852050781 0.8084802627563477 0.5082902908325195 0.5385217666625977 M 0.0576167106628418 -0.001950263977050781 C 5.3759765625 0.277338981628418 8.259766578674316 5.994139671325684 7.965816497802734 9.138669013977051 C 2.694336891174316 8.632809638977051 -0.4794931411743164 3.917969226837158 0.0576167106628418 -0.001950263977050781 Z" stroke="none" fill="#ffff65"/>
      </g>
    </g>
    <g transform="matrix(-0.98, 0.19, -0.19, -0.98, 71.46, 93.28)" filter="url(#Path_16836)">
      <g id="Path_16836-2" data-name="Path 16836" transform="matrix(-0.48, -0.87, 0.87, -0.48, 53.21, 29.75)" fill="url(#linear-gradient)">
        <path d="M 7.947258472442627 8.837552070617676 C 5.307544231414795 8.506344795227051 3.002742767333984 7.229697704315186 1.594136476516724 5.309649467468262 C 0.483033299446106 3.795096397399902 0.04252870753407478 2.01145076751709 0.3429773449897766 0.2637400925159454 C 2.535962104797363 0.430642694234848 4.413797855377197 1.348351240158081 5.784896373748779 2.926099300384521 C 7.385937690734863 4.768442630767822 8.013789176940918 7.167921543121338 7.947258472442627 8.837552070617676 Z" stroke="none"/>
        <path d="M 0.554725170135498 0.5330524444580078 C 0.3401322364807129 2.140280246734619 0.7734904289245605 3.768378734588623 1.795716285705566 5.161769390106201 C 3.114513397216797 6.959419250488281 5.246339797973633 8.176817893981934 7.702118873596191 8.551130294799805 C 7.692019462585449 6.952507019042969 7.066149711608887 4.781590461730957 5.596196174621582 3.090089321136475 C 4.298221111297607 1.596488475799561 2.603880405426025 0.737584114074707 0.554725170135498 0.5330524444580078 M 0.1384963989257813 3.910064697265625e-05 C 6.25313663482666 0.3243188858032227 8.451936721801758 5.997689247131348 8.180176734924316 9.11553955078125 C 2.858486652374268 8.576498985290527 -0.7660636901855469 4.373119354248047 0.1384963989257813 3.910064697265625e-05 Z" stroke="none" fill="#ffff65"/>
      </g>
    </g>
    <g transform="matrix(-0.98, 0.19, -0.19, -0.98, 71.46, 93.28)" filter="url(#Path_16838)">
      <g id="Path_16838-2" data-name="Path 16838" transform="matrix(-0.16, -0.99, 0.99, -0.16, 53.88, 48.99)" fill="url(#linear-gradient)">
        <path d="M 9.000205039978027 9.53412914276123 C 6.180648326873779 9.207996368408203 3.724731683731079 7.878600597381592 2.062688827514648 5.772647857666016 C 0.7352967858314514 4.090733051300049 0.09355106949806213 2.096826076507568 0.2822747230529785 0.264780730009079 C 3.333792448043823 0.501080334186554 5.376578330993652 2.166366815567017 6.561848640441895 3.540777683258057 C 8.11403751373291 5.340652465820313 9.071517944335938 7.71167516708374 9.000205039978027 9.53412914276123 Z" stroke="none"/>
        <path d="M 0.5108318328857422 0.53668212890625 C 0.4078941345214844 2.235776901245117 1.031261920928955 4.062210559844971 2.258928775787354 5.617767810821533 C 3.824628353118896 7.601640701293945 6.115127563476563 8.878932952880859 8.751482009887695 9.250204086303711 C 8.717569351196289 7.750964641571045 8.004146575927734 5.59603214263916 6.372518539428711 3.704047679901123 C 5.250677108764648 2.403185844421387 3.341267585754395 0.8348350524902344 0.5108318328857422 0.53668212890625 M 0.06288909912109375 1.811981201171875e-05 C 6.202468872070313 0.3228673934936523 9.552639007568359 6.446867942810059 9.232278823852539 9.809737205505371 C 3.147668838500977 9.24085807800293 -0.5327415466308594 4.186907768249512 0.06288909912109375 1.811981201171875e-05 Z" stroke="none" fill="#ffff65"/>
      </g>
    </g>
    <g transform="matrix(-0.98, 0.19, -0.19, -0.98, 71.46, 93.28)" filter="url(#Path_16840)">
      <g id="Path_16840-2" data-name="Path 16840" transform="translate(45.88 66.96) rotate(-78)" fill="url(#linear-gradient)">
        <path d="M 9.444185256958008 10.15365219116211 C 6.499858379364014 9.82274055480957 3.930912733078003 8.435480117797852 2.187188148498535 6.228119373321533 C 0.7558134794235229 4.416156768798828 0.07119587808847427 2.255437850952148 0.2894967198371887 0.2629572153091431 C 3.152244329452515 0.4527305066585541 5.520671844482422 1.568418622016907 7.149388313293457 3.497809171676636 C 8.617155075073242 5.236527442932129 9.427143096923828 7.59140157699585 9.444185256958008 10.15365219116211 Z" stroke="none"/>
        <path d="M 0.5162286758422852 0.530914306640625 C 0.3832855224609375 2.390918731689453 1.050262451171875 4.385586738586426 2.383358001708984 6.07314920425415 C 4.029152870178223 8.156536102294922 6.430217266082764 9.491643905639648 9.188934326171875 9.869898796081543 C 9.116520881652832 7.47704029083252 8.33393669128418 5.288596630096436 6.958358287811279 3.659079074859619 C 5.420722007751465 1.837586402893066 3.200632095336914 0.7616052627563477 0.5162286758422852 0.530914306640625 M 0.07097816467285156 1.9073486328125e-05 C 6.545728206634521 0.3140993118286133 9.774087905883789 5.106679439544678 9.692977905273438 10.43003940582275 C 3.277628421783447 9.854639053344727 -0.5786914825439453 4.475089073181152 0.07097816467285156 1.9073486328125e-05 Z" stroke="none" fill="#ffff65"/>
      </g>
    </g>
    <g transform="matrix(-0.98, 0.19, -0.19, -0.98, 71.46, 93.28)" filter="url(#Path_16842)">
      <g id="Path_16842-2" data-name="Path 16842" transform="translate(30.44 81.74) rotate(-56)" fill="url(#linear-gradient)">
        <path d="M 9.912381172180176 11.02917289733887 C 6.877861499786377 10.69448280334473 4.212685585021973 9.248414993286133 2.384510040283203 6.937893867492676 C 0.7951627969741821 4.92923641204834 0.0417073480784893 2.509331464767456 0.2982141375541687 0.2621500194072723 C 3.320368051528931 0.4511744678020477 5.81589412689209 1.655206680297852 7.525589942932129 3.752673864364624 C 9.070572853088379 5.648081302642822 9.913460731506348 8.223164558410645 9.912381172180176 11.02917289733887 Z" stroke="none"/>
        <path d="M 0.5233364105224609 0.5290031433105469 C 0.351984977722168 2.642806053161621 1.088376045227051 4.896897792816162 2.580560207366943 6.782773971557617 C 4.310299873352051 8.968880653381348 6.80848503112793 10.36314105987549 9.659574508666992 10.74640846252441 C 9.605972290039063 8.108292579650879 8.788482666015625 5.697701930999756 7.331809997558594 3.91063404083252 C 5.712858200073242 1.924480438232422 3.365991115570068 0.7609786987304688 0.5233364105224609 0.5290031433105469 M 0.08012962341308594 5.435943603515625e-05 C 6.898380279541016 0.3081636428833008 10.27334976196289 5.509453773498535 10.15962028503418 11.30489349365234 C 3.404960155487061 10.71035385131836 -0.6279897689819336 4.875043869018555 0.08012962341308594 5.435943603515625e-05 Z" stroke="none" fill="#ffff65"/>
      </g>
    </g>
    <g transform="matrix(-0.98, 0.19, -0.19, -0.98, 71.46, 93.28)" filter="url(#Path_16844)">
      <g id="Path_16844-2" data-name="Path 16844" transform="translate(10.38 88.41) rotate(-34)" fill="url(#linear-gradient)">
        <path d="M 10.15438747406006 11.70832347869873 C 7.062310218811035 11.37271499633789 4.35704231262207 9.916491508483887 2.514256238937378 7.588753223419189 C 1.653676271438599 6.501703262329102 1.001286268234253 5.236453056335449 0.6275963187217712 3.92978310585022 C 0.2790789008140564 2.711152315139771 0.1702579706907272 1.448143839836121 0.3100754916667938 0.2616557776927948 C 1.91979968547821 0.3582621216773987 3.377131938934326 0.7274234890937805 4.645146369934082 1.360103130340576 C 5.884886264801025 1.978673219680786 6.945176124572754 2.848893165588379 7.796586513519287 3.946573257446289 C 9.336487770080566 5.931910514831543 10.16945648193359 8.679487228393555 10.15438747406006 11.70832347869873 Z" stroke="none"/>
        <path d="M 0.5339422225952148 0.5276679992675781 C 0.4379110336303711 1.61194896697998 0.5516014099121094 2.754851341247559 0.8679561614990234 3.861042976379395 C 1.232736587524414 5.136563301086426 1.869796276092529 6.371932983398438 2.71026611328125 7.43358325958252 C 4.455691337585449 9.638327598571777 6.99432897567749 11.043137550354 9.903321266174316 11.42638683319092 C 9.867085456848145 8.564791679382324 9.057239532470703 5.979787349700928 7.599046230316162 4.099792957305908 C 6.770816326141357 3.03199291229248 5.739426136016846 2.185493469238281 4.533536434173584 1.583803176879883 C 3.358724117279053 0.9976253509521484 2.015140533447266 0.6430683135986328 0.5339422225952148 0.5276679992675781 M 0.09240627288818359 5.340576171875e-05 C 7.286546230316162 0.314183235168457 10.53340625762939 5.806883335113525 10.40075588226318 11.9835729598999 C 3.274526119232178 11.36385345458984 -0.6652736663818359 5.19692325592041 0.09240627288818359 5.340576171875e-05 Z" stroke="none" fill="#ffff65"/>
      </g>
    </g>
    <g transform="matrix(-0.98, 0.19, -0.19, -0.98, 71.46, 93.28)" filter="url(#Path_16846)">
      <g id="Path_16846-2" data-name="Path 16846" transform="matrix(-0.03, -1, 1, -0.03, 9.36, 84.44)" fill="url(#linear-gradient)">
        <path d="M 10.17698001861572 11.76283264160156 C 8.386662483215332 11.34464359283447 6.797102928161621 10.73714256286621 5.448422908782959 9.95523738861084 C 4.120192527770996 9.185187339782715 3.021142721176147 8.244277000427246 2.181812763214111 7.158647060394287 C 0.6645328402519226 5.196129322052002 0.02272213064134121 2.816755294799805 0.3191755712032318 0.2639151811599731 C 1.936933279037476 0.3768216073513031 3.398344278335571 0.7617922425270081 4.665972709655762 1.409366965293884 C 5.902182579040527 2.040896892547607 6.959112644195557 2.923686981201172 7.807382583618164 4.033216953277588 C 9.341845512390137 6.040278434753418 10.15843486785889 8.707347869873047 10.17698001861572 11.76283264160156 Z" stroke="none"/>
        <path d="M 0.54248046875 0.5322494506835938 C 0.3200016021728516 2.928035736083984 0.9507999420166016 5.157658100128174 2.379602909088135 7.005736827850342 C 3.199032783508301 8.065627098083496 4.273722648620605 8.985217094421387 5.573812961578369 9.738946914672852 C 6.822470664978027 10.46286582946777 8.282877922058105 11.03534030914307 9.92203426361084 11.44410610198975 C 9.850722312927246 8.577714920043945 9.056206703186035 6.078275203704834 7.608772754669189 4.185056686401367 C 6.783332824707031 3.10539722442627 5.7549729347229 2.246426582336426 4.552242755889893 1.632006645202637 C 3.377746105194092 1.032003402709961 2.030791282653809 0.6627941131591797 0.54248046875 0.5322494506835938 M 0.1006631851196289 6.67572021484375e-06 C 7.344112396240234 0.3860569000244141 10.496262550354 5.939116954803467 10.42612266540527 12.07550716400146 C 2.390642642974854 10.31595706939697 -0.6088171005249023 5.15636682510376 0.1006631851196289 6.67572021484375e-06 Z" stroke="none" fill="#ffff65"/>
      </g>
    </g>
    <g transform="matrix(-0.98, 0.19, -0.19, -0.98, 71.46, 93.28)" filter="url(#Path_16848)">
      <g id="Path_16848-2" data-name="Path 16848" transform="translate(27.85 78.9) rotate(-114)" fill="url(#linear-gradient)">
        <path d="M 10.00537776947021 11.17352485656738 C 6.974710941314697 10.8005428314209 4.299620151519775 9.317934989929199 2.448557376861572 6.978530406951904 C 0.8408854007720947 4.946727752685547 0.06066852435469627 2.513455390930176 0.2879543304443359 0.2651643455028534 C 3.303487539291382 0.4915738701820374 5.806097507476807 1.728776574134827 7.536607265472412 3.852030515670776 C 9.100193023681641 5.770462036132813 9.971989631652832 8.361496925354004 10.00537776947021 11.17352485656738 Z" stroke="none"/>
        <path d="M 0.5160551071166992 0.5354166030883789 C 0.3737049102783203 2.650411605834961 1.135501861572266 4.916177272796631 2.644607543945313 6.823400497436523 C 4.395809650421143 9.036600112915039 6.902336120605469 10.4656286239624 9.748909950256348 10.88651752471924 C 9.661952972412109 8.243205070495605 8.817032814025879 5.818745613098145 7.342827320098877 4.009970664978027 C 5.704179763793945 1.99944019317627 3.351199150085449 0.8040685653686523 0.5160551071166992 0.5354166030883789 M 0.06728744506835938 4.100799560546875e-05 C 6.87248706817627 0.3894109725952148 10.30083751678467 5.643790721893311 10.25593757629395 11.4530200958252 C 3.511067390441895 10.77722072601318 -0.5813627243041992 4.879320621490479 0.06728744506835938 4.100799560546875e-05 Z" stroke="none" fill="#ffff65"/>
      </g>
    </g>
    <g transform="matrix(-0.98, 0.19, -0.19, -0.98, 71.46, 93.28)" filter="url(#Path_16850)">
      <g id="Path_16850-2" data-name="Path 16850" transform="matrix(0.71, -0.71, 0.71, 0.71, 34.98, 57.95)" fill="url(#linear-gradient)">
        <path d="M 0.3330720067024231 10.26584243774414 C 0.04333765804767609 8.355684280395508 0.5362529158592224 6.39805269241333 1.732789516448975 4.72822093963623 C 2.551389455795288 3.585800886154175 3.650549411773682 2.61759090423584 4.999729633331299 1.850470781326294 C 6.340147972106934 1.088323712348938 7.861559391021729 0.5645927786827087 9.52619743347168 0.2919014096260071 C 9.48023796081543 2.755609750747681 8.589014053344727 5.079786777496338 6.999909400939941 6.86414098739624 C 5.325595855712891 8.744162559509277 3.024506807327271 9.91728401184082 0.3330720067024231 10.26584243774414 Z" stroke="none"/>
        <path d="M 0.5468286871910095 9.983551025390625 C 3.071903467178345 9.604761123657227 5.230762004852295 8.474737167358398 6.813209533691406 6.69787073135376 C 8.297096252441406 5.031672954559326 9.156829833984375 2.88167667388916 9.266170501708984 0.5908961892127991 C 7.748105049133301 0.8706794381141663 6.356886863708496 1.366398811340332 5.123289585113525 2.067790746688843 C 3.805759429931641 2.816920757293701 2.733399391174316 3.761010885238647 1.935999512672424 4.873830795288086 C 0.8118405938148499 6.442672252655029 0.3360057175159454 8.199945449829102 0.5468286871910095 9.983551025390625 M 0.1261794865131378 10.54249095916748 C -0.7727205157279968 5.69058084487915 3.20220947265625 0.9542707800865173 9.777689933776855 0.0001107926946133375 C 9.821819305419922 5.346730709075928 6.041159629821777 9.886811256408691 0.1261794865131378 10.54249095916748 Z" stroke="none" fill="#ffff65"/>
      </g>
    </g>
    <g transform="matrix(-0.98, 0.19, -0.19, -0.98, 71.46, 93.28)" filter="url(#Path_16852)">
      <g id="Path_16852-2" data-name="Path 16852" transform="translate(40.17 44.43) rotate(-63)" fill="url(#linear-gradient)">
        <path d="M 0.2973169088363647 9.532143592834473 C 0.07469373196363449 7.376339912414551 0.6336057186126709 5.394704341888428 1.920345067977905 3.788111925125122 C 3.472335338592529 1.850332975387573 5.984456539154053 0.6080558896064758 9.013734817504883 0.2746034860610962 C 9.117323875427246 2.019717693328857 8.621747016906738 4.490840911865234 6.915035247802734 6.480122089385986 C 5.355220317840576 8.298186302185059 3.129501581192017 9.324341773986816 0.2973169088363647 9.532143592834473 Z" stroke="none"/>
        <path d="M 0.5242069959640503 9.262588500976563 C 3.171055793762207 9.01997184753418 5.255551815032959 8.030405044555664 6.725295066833496 6.317331790924072 C 8.299010276794434 4.483067035675049 8.812843322753906 2.228143453598022 8.775058746337891 0.5549236536026001 C 5.931639671325684 0.9226338267326355 3.580155611038208 2.115636110305786 2.115475177764893 3.944391965866089 C 0.9194486141204834 5.43772554397583 0.3736808300018311 7.268051624298096 0.5242069959640503 9.262588500976563 M 0.0763750746846199 9.797032356262207 C -0.5898449420928955 4.616672039031982 3.155295133590698 0.5635919570922852 9.243165016174316 9.195449820253998e-05 C 9.566434860229492 3.361212015151978 7.609385013580322 9.369272232055664 0.0763750746846199 9.797032356262207 Z" stroke="none" fill="#ffff65"/>
      </g>
    </g>
    <g transform="matrix(-0.98, 0.19, -0.19, -0.98, 71.46, 93.28)" filter="url(#Path_16854)">
      <g id="Path_16854-2" data-name="Path 16854" transform="translate(49.49 31.6) rotate(172)" fill="url(#linear-gradient)">
        <path d="M 7.717379093170166 8.811875343322754 C 5.422273635864258 8.538921356201172 3.393898010253906 7.418579578399658 1.983776569366455 5.638851165771484 C 0.7092958688735962 4.030308246612549 0.09583409875631332 2.08595085144043 0.2814027369022369 0.2675151228904724 C 2.661948919296265 0.473296195268631 4.532395362854004 1.359686732292175 5.843116283416748 2.904141187667847 C 7.388310432434082 4.724851608276367 7.823987007141113 7.100451946258545 7.717379093170166 8.811875343322754 Z" stroke="none"/>
        <path d="M 0.5099802017211914 0.540985107421875 C 0.4083199501037598 2.222819805145264 1.003523826599121 3.999092102050781 2.179726600646973 5.483601093292236 C 3.493466854095459 7.141682624816895 5.360718727111816 8.210176467895508 7.479866981506348 8.527746200561523 C 7.524074554443359 6.893295288085938 7.070777893066406 4.737063884735107 5.652506828308105 3.065901279449463 C 4.43206787109375 1.627840042114258 2.703593730926514 0.7796974182128906 0.5099802017211914 0.540985107421875 M 0.06205654144287109 1.1444091796875e-05 C 6.729456424713135 0.4448413848876953 8.25119686126709 5.944721221923828 7.946256637573242 9.087270736694336 C 2.666256427764893 8.605681419372559 -0.4887838363647461 3.915781021118164 0.06205654144287109 1.1444091796875e-05 Z" stroke="none" fill="#ffff65"/>
      </g>
    </g>
  </g>
</svg>
