<svg xmlns="http://www.w3.org/2000/svg" width="113.621" height="23.883" viewBox="0 0 113.621 23.883">
  <g id="アートワーク_29" data-name="アートワーク 29" transform="translate(56.81 11.942)">
    <g id="アートワーク_29-2" data-name="アートワーク 29" transform="translate(-56.81 -11.942)">
      <path id="Path_6617" data-name="Path 6617" d="M53.122,0,47.21,8.457,41.259,0h-4.62L44.9,11.746,36.6,23.609h4.62l5.99-8.535,5.951,8.535h4.62l-8.3-11.863L57.742,0Z" transform="translate(-22.27)" fill="#fff"/>
      <path id="Path_6618" data-name="Path 6618" d="M102.824,13.706h3.915v4.777h-3.915Zm7.4-3.406H99.3V29.915h10.924V26.509h-7.4V21.85h7.439V10.3Z" transform="translate(-60.422 -6.267)" fill="#fff"/>
      <path id="Path_6619" data-name="Path 6619" d="M3.524,13.706H7.439v4.777H3.524Zm7.4-3.406H0V29.915H10.924V26.509h-7.4V21.85h7.439V10.3Z" transform="translate(0 -6.267)" fill="#fff"/>
      <path id="Path_6620" data-name="Path 6620" d="M201.354,4.454h7.909v5.912h-7.909ZM197.4.5V24.187h3.954V14.321h7.909v9.866h3.954V.5Z" transform="translate(-120.113 -0.304)" fill="#fff"/>
      <path id="Path_6621" data-name="Path 6621" d="M253.815,14.321h7.909v5.912h-7.909Zm0-9.866h5.912v5.912h-5.912ZM249.9.5V24.187h15.778V10.366h-1.958V.5Z" transform="translate(-152.058 -0.304)" fill="#fff"/>
      <path id="Path_6622" data-name="Path 6622" d="M145,.5V24.187h15.818V20.233H148.954V.5Z" transform="translate(-88.229 -0.304)" fill="#fff"/>
    </g>
  </g>
</svg>
