<svg id="Group_10478" data-name="Group 10478" xmlns="http://www.w3.org/2000/svg" width="15.798" height="15.798" viewBox="0 0 15.798 15.798">
  <g id="Group_10477" data-name="Group 10477" transform="translate(1.452 1.452)">
    <path id="info-circle-solid" d="M14.447,8a6.447,6.447,0,1,0,6.447,6.447A6.448,6.448,0,0,0,14.447,8Zm0,2.86a1.092,1.092,0,1,1-1.092,1.092A1.092,1.092,0,0,1,14.447,10.86Zm1.456,6.6a.312.312,0,0,1-.312.312H13.3a.312.312,0,0,1-.312-.312v-.624a.312.312,0,0,1,.312-.312h.312V14.863H13.3a.312.312,0,0,1-.312-.312v-.624a.312.312,0,0,1,.312-.312h1.664a.312.312,0,0,1,.312.312v2.6h.312a.312.312,0,0,1,.312.312Z" transform="translate(-8 -8)"/>
    <ellipse id="Ellipse_206" data-name="Ellipse 206" cx="4.5" cy="4" rx="4.5" ry="4" transform="translate(1.791 2.199)"/>
  </g>
  <path id="info-circle-solid-2" data-name="info-circle-solid" d="M15.9,8a7.9,7.9,0,1,0,7.9,7.9A7.9,7.9,0,0,0,15.9,8Zm0,3.5a1.338,1.338,0,1,1-1.338,1.338A1.338,1.338,0,0,1,15.9,11.5Zm1.784,8.09a.382.382,0,0,1-.382.382H14.5a.382.382,0,0,1-.382-.382v-.764a.382.382,0,0,1,.382-.382h.382V16.409H14.5a.382.382,0,0,1-.382-.382v-.764a.382.382,0,0,1,.382-.382h2.038a.382.382,0,0,1,.382.382v3.185H17.3a.382.382,0,0,1,.382.382Z" transform="translate(-8 -8)" fill="#ff0"/>
</svg>
