<svg xmlns="http://www.w3.org/2000/svg" width="24.565" height="12.198" viewBox="0 0 24.565 12.198">
  <g id="目のの無料アイコン7" transform="translate(0 -128.886)">
    <path id="Path_16919" data-name="Path 16919" d="M24.565,136.24a16.017,16.017,0,0,0-3.071-3.676,14.947,14.947,0,0,0-3.822-2.519,13.11,13.11,0,0,0-10.78,0,15.609,15.609,0,0,0-5.15,3.85A14.678,14.678,0,0,0,0,136.24l1.407.791.656.372v0h0a13.967,13.967,0,0,1,2.71-3.182,12.477,12.477,0,0,1,3.18-2.053,10.743,10.743,0,0,1,8.744.04,13.257,13.257,0,0,1,4.357,3.269,14.293,14.293,0,0,1,1.1,1.4c.121.175.21.315.267.407l.062.1.012.021,0,0,.466-.265-.467.262Z" fill="#7f7f7f"/>
    <path id="Path_16920" data-name="Path 16920" d="M173.756,210.339a4.145,4.145,0,1,0,4.145,4.145A4.145,4.145,0,0,0,173.756,210.339Z" transform="translate(-161.473 -77.545)" fill="#7f7f7f"/>
  </g>
</svg>
