<svg xmlns="http://www.w3.org/2000/svg" width="24.565" height="19.322" viewBox="0 0 24.565 19.322">
  <g id="Group_7362" data-name="Group 7362" transform="translate(-1052.718 -663.339)">
    <g id="目のの無料アイコン7" transform="translate(1052.718 538.016)">
      <path id="Path_16919" data-name="Path 16919" d="M24.565,136.24a16.017,16.017,0,0,0-3.071-3.676,14.947,14.947,0,0,0-3.822-2.519,13.11,13.11,0,0,0-10.78,0,15.609,15.609,0,0,0-5.15,3.85A14.678,14.678,0,0,0,0,136.24l1.407.791.656.372v0h0a13.967,13.967,0,0,1,2.71-3.182,12.477,12.477,0,0,1,3.18-2.053,10.743,10.743,0,0,1,8.744.04,13.257,13.257,0,0,1,4.357,3.269,14.293,14.293,0,0,1,1.1,1.4c.121.175.21.315.267.407l.062.1.012.021,0,0,.466-.265-.467.262Z" fill="#7f7f7f"/>
      <path id="Path_16920" data-name="Path 16920" d="M173.756,210.339a4.145,4.145,0,1,0,4.145,4.145A4.145,4.145,0,0,0,173.756,210.339Z" transform="translate(-161.473 -77.545)" fill="#7f7f7f"/>
    </g>
    <g id="Group_7337" data-name="Group 7337" transform="translate(468.396 -417.787) rotate(30)">
      <rect id="Rectangle_3070" data-name="Rectangle 3070" width="2.001" height="20" transform="translate(1060.066 636.348)" fill="#7f7f7f"/>
      <rect id="Rectangle_3071" data-name="Rectangle 3071" width="2.001" height="20" transform="translate(1062.068 636.348)"/>
    </g>
  </g>
</svg>
