<svg xmlns="http://www.w3.org/2000/svg" width="26" height="27.909" viewBox="0 0 26 27.909">
  <g id="レイヤー_2" data-name="レイヤー 2" transform="translate(26 27.909) rotate(180)">
    <g id="OBJECTS" transform="translate(0)">
      <path id="Path_17007" data-name="Path 17007" d="M14.951,1.076a3.631,3.631,0,0,1,.033,5.1L6.209,14.947A3.637,3.637,0,1,1,1.065,9.8L9.84,1.027a3.631,3.631,0,0,1,5.111.048Z" transform="translate(0.145)" fill="#4a4a4a"/>
      <path id="Path_17008" data-name="Path 17008" d="M14.95,14.957a3.495,3.495,0,0,1-4.99-.082L1.185,6.1A3.483,3.483,0,1,1,6.093,1.177l8.775,8.79a3.492,3.492,0,0,1,.082,4.99Z" transform="translate(0.086 8.735)" fill="#4a4a4a" opacity="0.7"/>
      <path id="Path_17009" data-name="Path 17009" d="M22.368,19.015A3.631,3.631,0,0,0,26,15.384V3.679A3.583,3.583,0,0,0,22.44.048L3.631,0h0A3.631,3.631,0,0,0,0,3.631,3.577,3.577,0,0,0,3.562,7.262l15.175.027v8.079a3.631,3.631,0,0,0,3.631,3.646Z" transform="translate(0 8.895)" fill="#4a4a4a" opacity="0.8"/>
    </g>
  </g>
</svg>
