<svg xmlns="http://www.w3.org/2000/svg" width="24" height="24.116" viewBox="0 0 24 24.116">
  <g id="LV1_ic_send" data-name="LV1 / ic / send" transform="translate(0 0.116)">
    <rect id="Rectangle_3065" data-name="Rectangle 3065" width="24" height="24" fill="rgba(255,255,255,0.7)" opacity="0"/>
    <path id="Path_16915" data-name="Path 16915" d="M16.736.114l-16.3,9.4a.844.844,0,0,0,.077,1.519L4.254,12.6l10.1-8.9a.211.211,0,0,1,.3.292L6.188,14.311v2.83a.844.844,0,0,0,1.494.556l2.233-2.718L14.3,16.815a.846.846,0,0,0,1.16-.64L17.988.986A.844.844,0,0,0,16.736.114Z" transform="translate(5.256 0.5) rotate(13)" fill="rgba(255,255,255,0.7)" stroke="rgba(255,255,255,0.3)" stroke-width="1"/>
  </g>
</svg>
