<svg xmlns="http://www.w3.org/2000/svg" width="19.906" height="19.906" viewBox="0 0 19.906 19.906">
  <g id="LV1_ic_send" data-name="LV1 / ic / send" transform="translate(-42 0.998)">
    <rect id="Rectangle_3065" data-name="Rectangle 3065" width="19.906" height="19.906" transform="translate(42 -0.998)" fill="#ff4786" opacity="0"/>
    <path id="Path_16915" data-name="Path 16915" d="M13.881.094.364,7.892a.7.7,0,0,0,.064,1.26l3.1,1.3,8.378-7.384a.175.175,0,0,1,.251.242L5.132,11.87v2.348a.7.7,0,0,0,1.239.461l1.852-2.254,3.634,1.522a.7.7,0,0,0,.962-.531l2.1-12.6A.7.7,0,0,0,13.881.094Z" transform="translate(46.359 0) rotate(13)" fill="#ff4786"/>
  </g>
</svg>
