<svg xmlns="http://www.w3.org/2000/svg" width="40" height="40" viewBox="0 0 40 40">
  <g id="Group_11621" data-name="Group 11621" transform="translate(14471 10089)">
    <g id="チップ" transform="translate(-14471 -10089)">
      <rect id="Rectangle_3445" data-name="Rectangle 3445" width="40" height="40" fill="none"/>
      <rect id="Rectangle_3461" data-name="Rectangle 3461" width="36" height="36" rx="3" transform="translate(2 2)" fill="none"/>
      <g id="Group_11357" data-name="Group 11357" transform="translate(-1208.265 -755.265)">
        <rect id="Rectangle_3458" data-name="Rectangle 3458" width="14" height="4" transform="translate(1212 774)"/>
        <rect id="Rectangle_3459" data-name="Rectangle 3459" width="14" height="3" transform="translate(1212 777)"/>
        <rect id="Rectangle_3460" data-name="Rectangle 3460" width="13" height="3" transform="translate(1212 780)"/>
        <g id="Group_11356" data-name="Group 11356">
          <rect id="Rectangle_3455" data-name="Rectangle 3455" width="14" height="3" transform="translate(1222 764)"/>
          <rect id="Rectangle_3456" data-name="Rectangle 3456" width="14" height="3" transform="translate(1222 767)"/>
          <rect id="Rectangle_3457" data-name="Rectangle 3457" width="13" height="3" transform="translate(1222 769)"/>
          <g id="Group_11349" data-name="Group 11349" transform="translate(1211.533 759.758)">
            <g id="レイヤー_2" data-name="レイヤー 2">
              <g id="icon">
                <path id="Path_17248" data-name="Path 17248" d="M24.318,1.82A5.49,5.49,0,0,0,22.6.839,15.323,15.323,0,0,0,17.322,0a15.314,15.314,0,0,0-5.275.839,5.464,5.464,0,0,0-1.719.981A2.064,2.064,0,0,0,9.574,3.2h0a.581.581,0,0,0-.014.126v7.254c-.584-.056-1.186-.084-1.8-.084a15.308,15.308,0,0,0-5.275.839,5.49,5.49,0,0,0-1.72.981A2.064,2.064,0,0,0,.015,13.7h0A.579.579,0,0,0,0,13.829v8.358a.586.586,0,0,0,.067.272h0a0,0,0,0,0,0,0,2.541,2.541,0,0,0,1.169,1.428,12.7,12.7,0,0,0,6.527,1.461,12.706,12.706,0,0,0,6.528-1.46,2.51,2.51,0,0,0,1.18-1.471.588.588,0,0,0,.047-.231V20.238c.588.056,1.192.084,1.805.084a15.308,15.308,0,0,0,5.275-.839,5.486,5.486,0,0,0,1.72-.981,2.01,2.01,0,0,0,.758-1.5V3.321A2.008,2.008,0,0,0,24.318,1.82Zm-10.4.35c.018-.088.11-.158.245-.187a.971.971,0,0,1,.477.036c.626.19,1.543.436,2.507.692a.065.065,0,0,0,.037,0l.025,0,.269-.056a5.421,5.421,0,0,0-.205-1.132.15.15,0,0,1,.013-.124.267.267,0,0,1,.186-.108,1.172,1.172,0,0,1,.756.122c.112.077.116.1.227,1.031l.3-.064a.835.835,0,0,1,.606.1.2.2,0,0,1,.107.193c-.015.075-.088.126-.216.153h-.007l-.739.152h0l.009.084c0,.056,0,.062.088.121.01,0,.012,0,.028,0,.395-.084.768-.162.973-.211l.008,0a.865.865,0,0,1,.618.106c.112.079.116.157.109.2-.015.076-.089.128-.219.155l-.007,0-.456.094-.428.088.631.44c.091.063.13.13.115.2s-.107.144-.26.177a1.023,1.023,0,0,1-.209.021.932.932,0,0,1-.516-.14c-.116-.081-.234-.164-.348-.245s-.235-.167-.354-.25a.026.026,0,0,0-.022,0c-.434.092-.843.179-1.116.245a.8.8,0,0,1-.614-.106c-.088-.062-.13-.133-.116-.2s.082-.119.2-.145l.014,0c.2-.038.6-.122,1.029-.213a.628.628,0,0,0-.066-.023c-.4-.115-.416-.112-.454-.1-.279.059-.558.121-.86.191a.782.782,0,0,1-.607-.1c-.117-.082-.121-.159-.114-.2.014-.071.084-.119.2-.145l.014,0,.169-.034.108-.021c-.38-.1-.754-.2-1.089-.287l-.678-.179a.875.875,0,0,1-.261-.11A.2.2,0,0,1,13.916,2.17ZM4.426,12.777c.018-.088.11-.158.245-.187a.971.971,0,0,1,.477.036c.626.19,1.543.436,2.507.692a.065.065,0,0,0,.037,0l.025,0,.269-.056a5.513,5.513,0,0,0-.205-1.132A.15.15,0,0,1,7.794,12,.267.267,0,0,1,7.98,11.9a1.172,1.172,0,0,1,.756.122c.112.077.116.1.227,1.031l.3-.064a.835.835,0,0,1,.606.1.2.2,0,0,1,.107.193c-.015.075-.088.126-.216.153H9.754l-.739.151h0l.009.084c0,.056,0,.062.088.121.01,0,.012,0,.028,0,.395-.084.768-.162.973-.211l.008,0a.865.865,0,0,1,.618.106c.113.079.116.157.109.2-.015.076-.089.128-.219.155l-.007,0-.456.094-.428.088.631.44c.091.063.13.13.115.2s-.107.144-.26.177a1.023,1.023,0,0,1-.209.021.932.932,0,0,1-.516-.14c-.116-.081-.234-.164-.348-.245L8.8,14.421a.026.026,0,0,0-.022,0c-.434.092-.843.179-1.116.245a.8.8,0,0,1-.614-.106c-.088-.062-.13-.133-.116-.2s.082-.119.2-.145l.014,0c.2-.038.6-.122,1.029-.213a.627.627,0,0,0-.066-.023c-.4-.115-.416-.112-.454-.1-.279.059-.558.121-.86.191a.782.782,0,0,1-.607-.1c-.117-.082-.121-.159-.114-.2.014-.071.082-.119.2-.145l.014,0,.169-.034.108-.021c-.38-.1-.754-.2-1.089-.287l-.678-.179a.875.875,0,0,1-.261-.11.2.2,0,0,1-.107-.2Zm9.751,8.553h0a12.518,12.518,0,0,1-6.425,1.431A12.516,12.516,0,0,1,1.327,21.33a.4.4,0,0,1,.445-.675,11.9,11.9,0,0,0,5.98,1.3,11.917,11.917,0,0,0,5.981-1.3.4.4,0,1,1,.445.676Zm0-2.735c-.061.04-.124.08-.188.118l-.017.009a13.1,13.1,0,0,1-6.221,1.3,12.515,12.515,0,0,1-6.425-1.431.4.4,0,0,1,.445-.675,11.9,11.9,0,0,0,5.98,1.3,12.824,12.824,0,0,0,5.649-1.1c.119-.064.231-.13.332-.2a.4.4,0,0,1,.445.676Zm0-2.735c-.054.036-.107.069-.159.1l-.028.017A13.066,13.066,0,0,1,7.752,17.29a12.515,12.515,0,0,1-6.425-1.431.4.4,0,0,1,.444-.675,11.9,11.9,0,0,0,5.98,1.3,12.824,12.824,0,0,0,5.649-1.1c.119-.064.231-.13.332-.2a.4.4,0,0,1,.445.676Zm9.6.251h0a12.518,12.518,0,0,1-6.425,1.431c-.288,0-.575-.006-.854-.019a.405.405,0,1,1,.036-.809c.267.012.542.018.818.018a11.909,11.909,0,0,0,5.981-1.3.405.405,0,1,1,.447.676Zm0-2.763h0a12.518,12.518,0,0,1-6.425,1.431c-.288,0-.575-.006-.853-.019a.405.405,0,0,1,.036-.809c.267.012.541.018.817.018a11.909,11.909,0,0,0,5.981-1.3.405.405,0,1,1,.447.676Zm0-2.735h0a12.518,12.518,0,0,1-6.425,1.431,17.309,17.309,0,0,1-3.74-.388h-.062v-.014a9.5,9.5,0,0,1-2-.676,5.427,5.427,0,0,1-.627-.353.4.4,0,0,1,.445-.675,11.908,11.908,0,0,0,5.98,1.3,11.917,11.917,0,0,0,5.981-1.3.405.405,0,0,1,.447.676Zm0-2.735h0a12.518,12.518,0,0,1-6.425,1.431,12.516,12.516,0,0,1-6.425-1.431.4.4,0,1,1,.445-.675,11.908,11.908,0,0,0,5.98,1.3,11.917,11.917,0,0,0,5.981-1.3.4.4,0,1,1,.445.675Zm0-2.735h0a12.518,12.518,0,0,1-6.425,1.431,12.516,12.516,0,0,1-6.425-1.431.4.4,0,1,1,.445-.675,11.908,11.908,0,0,0,5.98,1.3,11.917,11.917,0,0,0,5.981-1.3.405.405,0,0,1,.447.676Z" fill="#fff"/>
              </g>
            </g>
            <ellipse id="Ellipse_247" data-name="Ellipse 247" cx="4.388" cy="2.034" rx="4.388" ry="2.034" transform="translate(13.058 0.875)" fill="#fff"/>
            <ellipse id="Ellipse_246" data-name="Ellipse 246" cx="4.638" cy="2.034" rx="4.638" ry="2.034" transform="translate(2.783 11.578)" fill="#fff"/>
            <g id="Group_11348" data-name="Group 11348" transform="translate(12.059 9.608)">
              <g id="Group_11320" data-name="Group 11320" transform="translate(0)">
                <path id="Path_17250" data-name="Path 17250" d="M10.7,0A10.7,10.7,0,1,1,0,10.7,10.7,10.7,0,0,1,10.7,0Z" transform="translate(0)"/>
              </g>
              <g id="Group_11347" data-name="Group 11347" transform="translate(0.993 0.993)">
                <path id="Path_17251" data-name="Path 17251" d="M9.709,0a9.709,9.709,0,1,0,9.709,9.709A9.709,9.709,0,0,0,9.709,0Zm8.708,9.709a8.654,8.654,0,0,1-.677,3.364l-1.669-.692a6.863,6.863,0,0,0,.539-2.672c0-.012,0-.025,0-.037h1.807C18.416,9.684,18.418,9.7,18.418,9.709ZM9.709,16A6.293,6.293,0,1,1,16,9.709,6.3,6.3,0,0,1,9.709,16ZM1,9.709a8.657,8.657,0,0,1,.677-3.364l1.669.692a6.866,6.866,0,0,0-.539,2.673c0,.012,0,.024,0,.037H1C1,9.734,1,9.722,1,9.709ZM17.763,6.4l-1.67.692a6.919,6.919,0,0,0-1.528-2.28l1.278-1.278A8.737,8.737,0,0,1,17.763,6.4Zm-4.69-4.723-.692,1.669a6.873,6.873,0,0,0-2.672-.538H9.673V1h.037A8.654,8.654,0,0,1,13.073,1.678ZM6.4,1.656l.692,1.67a6.932,6.932,0,0,0-2.28,1.528L3.534,3.576A8.744,8.744,0,0,1,6.4,1.656ZM1.656,13.017l1.67-.691a6.938,6.938,0,0,0,1.528,2.28L3.576,15.884A8.741,8.741,0,0,1,1.656,13.017ZM6.345,17.74l.692-1.669a6.86,6.86,0,0,0,2.672.539h.037v1.807H9.709A8.648,8.648,0,0,1,6.345,17.74Zm6.673.023-.692-1.67a6.935,6.935,0,0,0,2.281-1.528l1.278,1.278A8.754,8.754,0,0,1,13.018,17.763Z" transform="translate(0 0)" fill="#fff"/>
                <circle id="Ellipse_254" data-name="Ellipse 254" cx="6.636" cy="6.636" r="6.636" transform="translate(3.178 3.049)" fill="#fff"/>
              </g>
            </g>
            <g id="logo_mt_h2_w" transform="translate(17.317 17.559)">
              <path id="Path_17167" data-name="Path 17167" d="M114.114,17.27H112v3.8h2.114v-.662h-1.436v-.9h1.441V17.27h0m-1.436,1.586v-.924h.761v.924Z" transform="translate(-103.231 -16.027)"/>
              <path id="Path_17168" data-name="Path 17168" d="M5.016,17.27H2.9v3.8H5.016v-.662H3.58v-.9H5.021V17.27h0M3.58,18.856v-.924h.761v.924Z" transform="translate(-2.9 -16.027)"/>
              <path id="Path_17172" data-name="Path 17172" d="M57.42,32.83l.013,0Z" transform="translate(-53.038 -30.336)"/>
              <path id="Path_17173" data-name="Path 17173" d="M60.21,35.52a.1.1,0,0,0,.039,0H60.21Z" transform="translate(-55.603 -32.81)"/>
              <path id="Path_17174" data-name="Path 17174" d="M60.16,36.466H60.2A.112.112,0,0,0,60.16,36.466Z" transform="translate(-55.557 -33.677)"/>
              <path id="Path_17175" data-name="Path 17175" d="M83.6,39.1a.108.108,0,0,0-.035-.01Z" transform="translate(-77.086 -36.093)"/>
              <path id="Path_17176" data-name="Path 17176" d="M70.13,45.915a.108.108,0,0,0,0-.055.1.1,0,0,1,0,.022A.155.155,0,0,1,70.13,45.915Z" transform="translate(-64.726 -42.318)"/>
              <path id="Path_17177" data-name="Path 17177" d="M71.1,46.151a.052.052,0,0,1,0-.011A.052.052,0,0,0,71.1,46.151Z" transform="translate(-65.615 -42.576)"/>
              <path id="Path_17178" data-name="Path 17178" d="M65,25.384a.032.032,0,0,0,0,0Z" transform="translate(-60.008 -23.485)"/>
              <path id="Path_17179" data-name="Path 17179" d="M83.67,32.816l.018-.006Z" transform="translate(-77.178 -30.317)"/>
              <path id="Path_17180" data-name="Path 17180" d="M67.43,22.7a.109.109,0,0,0-.01-.035A.122.122,0,0,1,67.43,22.7Z" transform="translate(-62.234 -20.992)"/>
              <path id="Path_17181" data-name="Path 17181" d="M73.755,22.75l0,.017Z" transform="translate(-68.055 -21.066)"/>
              <path id="Path_17182" data-name="Path 17182" d="M73.756,49.05a.06.06,0,0,0,0,.013A.06.06,0,0,1,73.756,49.05Z" transform="translate(-68.06 -45.252)"/>
              <path id="Path_17183" data-name="Path 17183" d="M67.63,28.16v.019a.09.09,0,0,1,0,.014A.119.119,0,0,0,67.63,28.16Z" transform="translate(-62.427 -26.041)"/>
              <path id="Path_17184" data-name="Path 17184" d="M62.83,39Z" transform="translate(-58.013 -36.01)"/>
              <path id="Path_17185" data-name="Path 17185" d="M63,33Z" transform="translate(-58.169 -30.492)"/>
              <path id="Path_17186" data-name="Path 17186" d="M65.11,41h0v.012A.11.11,0,0,0,65.11,41Z" transform="translate(-60.11 -37.849)"/>
              <path id="Path_17187" data-name="Path 17187" d="M67.63,43.4a.107.107,0,0,1,0,.016.134.134,0,0,1,0,.026A.1.1,0,0,0,67.63,43.4Z" transform="translate(-62.427 -40.056)"/>
              <path id="Path_17188" data-name="Path 17188" d="M70.14,25.51a.161.161,0,0,1,0,.029.111.111,0,0,1,0,.016A.105.105,0,0,0,70.14,25.51Z" transform="translate(-64.735 -23.604)"/>
              <path id="Path_17189" data-name="Path 17189" d="M80.609,35.5a.14.14,0,0,1-.032,0H80.56A.1.1,0,0,0,80.609,35.5Z" transform="translate(-74.318 -32.791)"/>
              <path id="Path_17190" data-name="Path 17190" d="M71.093,25.57a.124.124,0,0,0,0,.039.09.09,0,0,1,0-.014A.081.081,0,0,1,71.093,25.57Z" transform="translate(-65.61 -23.659)"/>
              <path id="Path_17191" data-name="Path 17191" d="M78.1,33H78.06A.137.137,0,0,0,78.1,33Z" transform="translate(-72.019 -30.492)"/>
              <path id="Path_17192" data-name="Path 17192" d="M80.673,36.47a.149.149,0,0,0-.033,0h.033Z" transform="translate(-74.391 -33.682)"/>
              <path id="Path_17193" data-name="Path 17193" d="M81.25,41.68Z" transform="translate(-74.952 -38.474)"/>
              <path id="Path_17194" data-name="Path 17194" d="M39.848,2.763a.118.118,0,1,1,.118.118A.118.118,0,0,1,39.848,2.763Zm.3-.074a.107.107,0,1,0-.106-.107A.107.107,0,0,0,40.146,2.689Zm.161-.175a.094.094,0,1,0-.094-.094A.094.094,0,0,0,40.307,2.514Zm.167-.179a.08.08,0,1,0-.08-.08A.08.08,0,0,0,40.474,2.335Zm.152-.155a.08.08,0,1,0-.057-.077A.08.08,0,0,0,40.626,2.179Zm.133-.143a.067.067,0,1,0-.067-.067A.067.067,0,0,0,40.759,2.036Zm.116-.13a.052.052,0,0,0,.052-.052.053.053,0,1,0-.052.052Zm-.824,1.06a.118.118,0,1,0,.118-.118A.118.118,0,0,0,40.051,2.966Zm.192-.18a.106.106,0,1,0,.032-.076A.106.106,0,0,0,40.243,2.786Zm.27-.257a.094.094,0,1,0,.093.091A.094.094,0,0,0,40.513,2.529Zm.167-.155a.08.08,0,1,0,.057.023.08.08,0,0,0-.057-.023Zm.15-.145a.08.08,0,1,0,.057.023.08.08,0,0,0-.057-.023Zm.066-.056a.065.065,0,1,0,.019-.047.067.067,0,0,0-.019.047Zm.179-.063a.053.053,0,0,0,.055-.053.052.052,0,0,0-.055-.052.053.053,0,0,0-.053.052A.054.054,0,0,0,41.076,2.11Zm-.7,1.178a.118.118,0,1,0-.084-.034.118.118,0,0,0,.084.034Zm.074-.3a.106.106,0,1,0,.106-.106.106.106,0,0,0-.106.106Zm.268-.069a.094.094,0,1,0-.094-.094A.094.094,0,0,0,40.716,2.921Zm.167-.342a.08.08,0,1,0,.08.08A.08.08,0,0,0,40.883,2.578Zm.15-.145a.08.08,0,1,0,.08.08A.08.08,0,0,0,41.033,2.433Zm.066-.054a.067.067,0,1,0,.067-.067A.067.067,0,0,0,41.1,2.379Zm.182-.063a.053.053,0,1,0-.052-.052.052.052,0,0,0,.052.051Zm-.7,1.177a.119.119,0,1,0-.118-.118A.119.119,0,0,0,40.577,3.492Zm.178-.192a.107.107,0,1,0-.106-.106A.107.107,0,0,0,40.754,3.3Zm.161-.175a.094.094,0,1,0-.094-.094A.094.094,0,0,0,40.915,3.125Zm.172-.344a.08.08,0,1,0,.08.08A.08.08,0,0,0,41.087,2.781Zm.15-.144a.08.08,0,1,0,.089.03A.08.08,0,0,0,41.237,2.637Zm.067-.056a.067.067,0,1,0,.067-.067A.067.067,0,0,0,41.3,2.581Zm.182-.063a.052.052,0,0,0,.052-.052.053.053,0,0,0-.052-.053.054.054,0,0,0-.053.053A.053.053,0,0,0,41.486,2.517ZM40.78,3.7a.118.118,0,1,0-.118-.118A.118.118,0,0,0,40.78,3.7Zm.18-.191a.106.106,0,1,0-.106-.106A.106.106,0,0,0,40.96,3.5Zm.161-.175a.094.094,0,1,0-.094-.094A.094.094,0,0,0,41.121,3.329Zm.167-.343a.08.08,0,1,0,.08.08.08.08,0,0,0-.08-.08Zm.15-.145a.08.08,0,1,0,.057.077.08.08,0,0,0-.057-.077Zm.066-.056a.067.067,0,1,0,.067-.067.067.067,0,0,0-.067.067Zm.182-.063a.053.053,0,0,0,.052-.053.052.052,0,1,0-.1,0,.053.053,0,0,0,.055.052Zm-.7,1.178a.118.118,0,1,0-.084-.035A.119.119,0,0,0,40.984,3.9Zm.18-.193a.106.106,0,1,0-.106-.106A.106.106,0,0,0,41.164,3.707Zm.161-.363a.094.094,0,1,0,.094.094.094.094,0,0,0-.094-.094Zm.167.009a.08.08,0,1,0-.056-.023.08.08,0,0,0,.056.023Zm.15-.309a.08.08,0,1,0,.08.08.08.08,0,0,0-.08-.08Zm.067-.055a.067.067,0,1,0,.066-.067.067.067,0,0,0-.066.067Zm.182-.063a.052.052,0,0,0,.053-.052.053.053,0,1,0-.105,0,.052.052,0,0,0,.055.052Zm-3.463,3.3a.113.113,0,1,0,.086.033.119.119,0,0,0-.086-.033Zm-.18.192a.107.107,0,1,0,.106.107.107.107,0,0,0-.106-.107Zm-.161.175a.089.089,0,1,0,.068.024.094.094,0,0,0-.068-.024Zm-.167.179a.075.075,0,1,0,.058.021.08.08,0,0,0-.058-.021Zm-.15.155a.075.075,0,1,0,.058.021.08.08,0,0,0-.058-.021Zm-.133.143a.062.062,0,1,0,.048.017.067.067,0,0,0-.048-.017Zm-.116.13a.053.053,0,0,0-.053.052.054.054,0,0,0,.053.053.053.053,0,0,0,.052-.053.052.052,0,0,0-.052-.055Zm.822-1.063a.118.118,0,1,0-.118.118.118.118,0,0,0,.118-.118Zm-.192.18a.1.1,0,1,0-.031.075.106.106,0,0,0,.031-.075Zm-.269.257a.094.094,0,1,0-.093-.091.094.094,0,0,0,.093.091Zm-.167.155a.08.08,0,1,0-.057-.023.08.08,0,0,0,.057.023Zm-.15.145a.08.08,0,1,0-.089-.03A.08.08,0,0,0,37.565,6.869Zm-.067.056a.067.067,0,1,0-.066.067.067.067,0,0,0,.066-.067Zm-.182.063a.053.053,0,1,0,.053.053A.053.053,0,0,0,37.316,6.988Zm.7-1.178a.118.118,0,1,0,.118.118A.118.118,0,0,0,38.021,5.81Zm-.074.3a.1.1,0,1,0-.031.075.106.106,0,0,0,.031-.075Zm-.269.069a.094.094,0,1,0,.094.094.094.094,0,0,0-.094-.094Zm-.167.342a.08.08,0,1,0-.057-.023.08.08,0,0,0,.057.023Zm-.15.145a.08.08,0,1,0-.057-.077A.08.08,0,0,0,37.361,6.665Zm-.063.054a.067.067,0,1,0-.067.067A.067.067,0,0,0,37.3,6.719Zm-.182.063a.053.053,0,1,0,.051.024A.053.053,0,0,0,37.116,6.783ZM37.821,5.6a.121.121,0,1,0,.084.035.119.119,0,0,0-.084-.035ZM37.64,5.8a.107.107,0,1,0,.1.05.107.107,0,0,0-.1-.05Zm-.161.175A.1.1,0,1,0,37.544,6a.094.094,0,0,0-.065-.027Zm-.171.346a.08.08,0,1,0-.08-.08A.08.08,0,0,0,37.308,6.317Zm-.15.145a.08.08,0,1,0-.076-.076.08.08,0,0,0,.076.076Zm-.066.056a.067.067,0,1,0-.019.047.067.067,0,0,0,.019-.047Zm-.182.063a.053.053,0,0,0-.053.052.054.054,0,0,0,.053.053.053.053,0,0,0,.052-.053.052.052,0,0,0-.052-.053Zm.7-1.178a.117.117,0,1,0,.084.034.118.118,0,0,0-.084-.034Zm-.18.19a.106.106,0,1,0,.1.107A.106.106,0,0,0,37.435,5.594Zm-.161.175a.1.1,0,1,0,.065.027.094.094,0,0,0-.065-.027Zm-.167.343a.08.08,0,1,0-.08-.08.08.08,0,0,0,.08.08Zm-.15.145a.08.08,0,1,0-.08-.08.08.08,0,0,0,.08.08Zm-.067.056a.067.067,0,1,0-.067.067.067.067,0,0,0,.067-.067Zm-.182.063a.054.054,0,1,0,.036.015.053.053,0,0,0-.036-.015ZM37.414,5.2a.12.12,0,1,0,.083.035.119.119,0,0,0-.083-.035Zm-.18.193a.107.107,0,1,0,.074.031.106.106,0,0,0-.074-.031Zm-.161.363a.094.094,0,1,0-.1-.093.094.094,0,0,0,.1.093Zm-.167.155a.08.08,0,1,0-.08-.08.08.08,0,0,0,.08.08Zm-.15.145a.08.08,0,1,0-.057-.077A.08.08,0,0,0,36.755,6.054Zm-.066.055a.067.067,0,1,0-.067.067.067.067,0,0,0,.067-.067Zm-.182.063a.052.052,0,0,0-.052.052.053.053,0,0,0,.052.053.054.054,0,0,0,.053-.053.053.053,0,0,0-.058-.051Zm4.358-.855a.118.118,0,1,0,.035-.084A.119.119,0,0,0,40.865,5.317Zm.4.18a.1.1,0,1,0-.029.076.106.106,0,0,0,.029-.076Zm.06.257a.094.094,0,1,0-.091-.095A.094.094,0,0,0,41.327,5.755Zm.248.073a.08.08,0,1,0-.023.057.08.08,0,0,0,.023-.057Zm.068.227a.08.08,0,1,0-.057-.077A.08.08,0,0,0,41.644,6.055Zm.133-.011a.065.065,0,1,0,.047.019.067.067,0,0,0-.047-.019Zm.116.13a.052.052,0,0,0-.052.052.053.053,0,1,0,.052-.052ZM40.78,5.4a.118.118,0,1,0,.084.034A.118.118,0,0,0,40.78,5.4Zm.287.3a.107.107,0,1,0-.107.106.107.107,0,0,0,.107-.106Zm.056.257a.094.094,0,1,0-.094-.094.094.094,0,0,0,.094.094Zm.249.073a.08.08,0,1,0-.08.08.08.08,0,0,0,.08-.08Zm.068.227a.08.08,0,1,0-.08-.08A.08.08,0,0,0,41.441,6.258Zm.133-.01a.067.067,0,1,0,.047.021A.067.067,0,0,0,41.573,6.247Zm.116.129a.053.053,0,0,0-.052.053.052.052,0,1,0,.1,0,.053.053,0,0,0-.052-.053Zm-1.112-.771a.119.119,0,1,0,.118.118A.119.119,0,0,0,40.577,5.606Zm.286.3a.106.106,0,1,0-.032.076.106.106,0,0,0,.032-.076Zm.057.257a.094.094,0,1,0-.094-.094.094.094,0,0,0,.094.094Zm.249.073a.08.08,0,1,0-.08.08.08.08,0,0,0,.08-.08Zm.068.227a.08.08,0,1,0-.08-.076A.08.08,0,0,0,41.237,6.461Zm.133-.01a.067.067,0,1,0,.067.067.067.067,0,0,0-.067-.067Zm.116.13a.053.053,0,0,0-.053.052.054.054,0,0,0,.053.053.053.053,0,0,0,.052-.053A.052.052,0,0,0,41.486,6.581ZM40.373,5.81a.118.118,0,1,0,.118.118A.118.118,0,0,0,40.373,5.81Zm.18.192a.106.106,0,1,0,.106.106A.106.106,0,0,0,40.553,6Zm.161.363a.094.094,0,1,0-.066-.027.094.094,0,0,0,.066.027Zm.249.073a.078.078,0,1,0-.023.057.08.08,0,0,0,.023-.057Zm.068.227a.08.08,0,1,0-.057-.077A.08.08,0,0,0,41.032,6.665Zm.133-.01a.067.067,0,1,0,.051.017.067.067,0,0,0-.051-.017Zm.116.129a.053.053,0,1,0,.051.024A.053.053,0,0,0,41.28,6.784Zm-1.111-.771a.118.118,0,1,0,.118.118A.118.118,0,0,0,40.169,6.014Zm.18.4a.1.1,0,1,0-.075-.028.106.106,0,0,0,.075.028Zm.161.151a.094.094,0,1,0-.092-.088.094.094,0,0,0,.092.088Zm.167.155A.076.076,0,1,0,40.62,6.7a.08.08,0,0,0,.057.021Zm.15.145a.076.076,0,1,0-.057-.021.08.08,0,0,0,.057.021Zm.133-.01a.067.067,0,1,0,.067.067.067.067,0,0,0-.067-.067Zm.116.132a.054.054,0,0,0-.053.053.053.053,0,0,0,.053.052.052.052,0,0,0,.052-.052.053.053,0,0,0-.052-.053Zm-1.3-.715a.131.131,0,0,1-.131-.131.133.133,0,0,1,.015-.059.14.14,0,0,1-.069.018.142.142,0,0,1-.142-.142.153.153,0,0,1,.009-.051.146.146,0,0,1-.059.012.155.155,0,0,1-.155-.155.186.186,0,0,1,0-.037.178.178,0,0,1-.047.006.187.187,0,0,1-.047-.006.141.141,0,0,1,0,.037A.154.154,0,0,1,39,5.919a.149.149,0,0,1-.06-.012.153.153,0,0,1,.01.051.143.143,0,0,1-.143.142.145.145,0,0,1-.069-.018.124.124,0,0,1,.015.059.131.131,0,1,1-.13-.13.124.124,0,0,1,.059.015.145.145,0,0,1-.018-.069.143.143,0,0,1,.142-.143.149.149,0,0,1,.051.01.15.15,0,0,1-.012-.06.161.161,0,0,1,.013-.062.142.142,0,0,1-.062.014.161.161,0,0,1-.059-.012.145.145,0,0,1,.008.051A.143.143,0,0,1,38.6,5.9a.135.135,0,0,1-.069-.018.14.14,0,0,1,.015.06.131.131,0,1,1-.131-.13.127.127,0,0,1,.06.015.146.146,0,0,1-.018-.07.142.142,0,0,1,.142-.142.135.135,0,0,1,.051.01.15.15,0,0,1-.012-.06.161.161,0,0,1,.013-.062.161.161,0,0,1-.062.013.149.149,0,0,1-.06-.012.135.135,0,0,1,.01.051.142.142,0,0,1-.142.142.145.145,0,0,1-.07-.018.127.127,0,0,1,.015.06.13.13,0,1,1-.13-.131.14.14,0,0,1,.06.015.135.135,0,0,1-.018-.069.143.143,0,0,1,.143-.142.145.145,0,0,1,.05.009.161.161,0,0,1-.012-.059.142.142,0,0,1,.014-.062.161.161,0,0,1-.063.013.149.149,0,0,1-.059-.012.149.149,0,0,1,.01.051.143.143,0,0,1-.143.142.145.145,0,0,1-.069-.018.124.124,0,0,1,.015.059.131.131,0,1,1-.13-.13.124.124,0,0,1,.059.015.145.145,0,0,1-.018-.069A.143.143,0,0,1,38.2,5.2a.153.153,0,0,1,.051.01.149.149,0,0,1-.012-.06.161.161,0,0,1,.013-.062.142.142,0,0,1-.062.014.161.161,0,0,1-.059-.012.145.145,0,0,1,.009.05.143.143,0,0,1-.142.143.135.135,0,0,1-.069-.018.14.14,0,0,1,.015.06.131.131,0,1,1-.131-.13.129.129,0,0,1,.06.015.146.146,0,0,1-.018-.07A.143.143,0,0,1,37.992,5a.135.135,0,0,1,.051.01.153.153,0,0,1-.012-.06.147.147,0,0,1,.013-.062.161.161,0,0,1-.062.013.149.149,0,0,1-.06-.012.135.135,0,0,1,.01.051.143.143,0,0,1-.143.142.145.145,0,0,1-.069-.018.125.125,0,0,1,.015.06.132.132,0,1,1-.07-.116.135.135,0,0,1-.018-.069.142.142,0,0,1,.142-.142.145.145,0,0,1,.051.009.161.161,0,0,1-.012-.059.154.154,0,0,1,.155-.155.148.148,0,0,1,.038,0,.161.161,0,0,1,0-.095.148.148,0,0,1-.038,0,.154.154,0,0,1-.155-.155.161.161,0,0,1,.012-.059.145.145,0,0,1-.051.009.142.142,0,0,1-.142-.142.135.135,0,0,1,.018-.069.129.129,0,0,1-.06.015.131.131,0,1,1,.13-.131.125.125,0,0,1-.015.06.145.145,0,0,1,.069-.018.143.143,0,0,1,.143.142.135.135,0,0,1-.01.051.149.149,0,0,1,.06-.012.161.161,0,0,1,.062.013.147.147,0,0,1-.013-.062.153.153,0,0,1,.012-.06.135.135,0,0,1-.051.01.143.143,0,0,1-.143-.142.146.146,0,0,1,.018-.07.126.126,0,1,1,.074-.116.14.14,0,0,1-.015.06.135.135,0,0,1,.069-.018.143.143,0,0,1,.142.143.145.145,0,0,1-.009.05.161.161,0,0,1,.059-.012.142.142,0,0,1,.062.014.161.161,0,0,1-.013-.062.15.15,0,0,1,.012-.06.153.153,0,0,1-.051.01.143.143,0,0,1-.142-.143.145.145,0,0,1,.018-.069.124.124,0,0,1-.059.015.131.131,0,1,1,.13-.13.124.124,0,0,1-.015.059.145.145,0,0,1,.069-.018.143.143,0,0,1,.145.142.149.149,0,0,1-.01.051.149.149,0,0,1,.059-.012.161.161,0,0,1,.063.013.142.142,0,0,1-.014-.062.161.161,0,0,1,.012-.059.145.145,0,0,1-.05.009.143.143,0,0,1-.143-.142.135.135,0,0,1,.018-.069.14.14,0,0,1-.06.015.131.131,0,1,1,.124-.131.127.127,0,0,1-.015.06.145.145,0,0,1,.07-.018.142.142,0,0,1,.142.142.135.135,0,0,1-.01.051.149.149,0,0,1,.06-.012.161.161,0,0,1,.062.013.161.161,0,0,1-.013-.062.15.15,0,0,1,.012-.06.135.135,0,0,1-.051.01.142.142,0,0,1-.14-.143.145.145,0,0,1,.018-.07.127.127,0,0,1-.06.015.13.13,0,1,1,.131-.13.14.14,0,0,1-.015.06A.135.135,0,0,1,38.6,3.2a.143.143,0,0,1,.141.143.145.145,0,0,1-.009.05.161.161,0,0,1,.059-.012.142.142,0,0,1,.062.014.161.161,0,0,1-.013-.062.149.149,0,0,1,.012-.06.15.15,0,0,1-.051.01.143.143,0,0,1-.141-.142.145.145,0,0,1,.018-.069.124.124,0,0,1-.059.015.131.131,0,1,1,.13-.13.124.124,0,0,1-.015.059A.145.145,0,0,1,38.807,3a.143.143,0,0,1,.143.142.153.153,0,0,1-.01.051A.149.149,0,0,1,39,3.179a.154.154,0,0,1,.154.155.142.142,0,0,1,0,.037.187.187,0,0,1,.047-.006.178.178,0,0,1,.047.006.186.186,0,0,1,0-.037.155.155,0,0,1,.155-.151.145.145,0,0,1,.059.012.153.153,0,0,1-.009-.051A.142.142,0,0,1,39.588,3a.14.14,0,0,1,.069.018.133.133,0,0,1-.015-.059.131.131,0,1,1,.131.13.129.129,0,0,1-.06-.015.146.146,0,0,1,.018.069.143.143,0,0,1-.143.143.153.153,0,0,1-.051-.01.15.15,0,0,1,.012.06.147.147,0,0,1-.013.062.148.148,0,0,1,.062-.014.161.161,0,0,1,.06.012.128.128,0,0,1-.01-.05A.143.143,0,0,1,39.79,3.2a.137.137,0,0,1,.069.018.13.13,0,1,1,.115.07.124.124,0,0,1-.059-.015.145.145,0,0,1,.018.07.142.142,0,0,1-.142.142.129.129,0,0,1-.051-.01.156.156,0,0,1,0,.122.155.155,0,0,1,.062-.013.149.149,0,0,1,.059.012.153.153,0,0,1-.009-.051.142.142,0,0,1,.214-.124.127.127,0,0,1-.015-.06.131.131,0,1,1,.13.131.133.133,0,0,1-.059-.015A.142.142,0,0,1,40,3.691a.153.153,0,0,1-.051-.009.149.149,0,0,1,.012.059.155.155,0,0,1-.013.062.161.161,0,0,1,.062-.013.153.153,0,0,1,.06.012.132.132,0,0,1-.01-.051.142.142,0,0,1,.142-.142.145.145,0,0,1,.07.018.124.124,0,0,1-.015-.059.131.131,0,1,1,.07.115.137.137,0,0,1,.018.069.141.141,0,0,1-.193.133.161.161,0,0,1,.012.06.148.148,0,0,1-.014.062.148.148,0,0,1,.062-.014.161.161,0,0,1,.06.012.141.141,0,0,1,.133-.193.137.137,0,0,1,.069.018.13.13,0,1,1,.115.07.124.124,0,0,1-.059-.015.145.145,0,0,1,.018.07A.142.142,0,0,1,40.4,4.1a.132.132,0,0,1-.051-.01.153.153,0,0,1,.012.06.161.161,0,0,1-.013.062.155.155,0,0,1,.062-.013.149.149,0,0,1,.059.012.153.153,0,0,1-.009-.051.142.142,0,0,1,.21-.125.134.134,0,0,1-.015-.06.131.131,0,1,1,.131.131.127.127,0,0,1-.06-.015A.142.142,0,0,1,40.6,4.3a.153.153,0,0,1-.051-.009.149.149,0,0,1,.012.059.154.154,0,0,1-.154.155.148.148,0,0,1-.038,0,.161.161,0,0,1,0,.095.148.148,0,0,1,.038,0,.154.154,0,0,1,.154.155.149.149,0,0,1-.012.059A.153.153,0,0,1,40.6,4.8a.142.142,0,0,1,.125.211.127.127,0,0,1,.06-.015.131.131,0,1,1-.131.131.134.134,0,0,1,.015-.06.142.142,0,0,1-.211-.125.153.153,0,0,1,.009-.051.149.149,0,0,1-.059.012.155.155,0,0,1-.062-.013.161.161,0,0,1,.013.062.153.153,0,0,1-.012.06A.132.132,0,0,1,40.4,5a.142.142,0,0,1,.142.142.145.145,0,0,1-.018.07.124.124,0,0,1,.059-.015.131.131,0,1,1-.115.07.137.137,0,0,1-.069.018.141.141,0,0,1-.129-.193.161.161,0,0,1-.06.012.148.148,0,0,1-.062-.014.148.148,0,0,1,.014.062.161.161,0,0,1-.012.06.141.141,0,0,1,.193.133.137.137,0,0,1-.018.069.129.129,0,0,1,.06-.015.131.131,0,1,1-.13.13.124.124,0,0,1,.015-.059.146.146,0,0,1-.07.018.142.142,0,0,1-.142-.142.132.132,0,0,1,.01-.051.153.153,0,0,1-.06.012.161.161,0,0,1-.062-.013.155.155,0,0,1,.013.062.149.149,0,0,1-.012.059A.153.153,0,0,1,40,5.408a.142.142,0,0,1,.125.211.133.133,0,0,1,.059-.015.131.131,0,1,1-.13.131.127.127,0,0,1,.015-.06.142.142,0,0,1-.211-.125.153.153,0,0,1,.009-.051.149.149,0,0,1-.059.012.155.155,0,0,1-.062-.013.156.156,0,0,1,0,.122.129.129,0,0,1,.051-.01.142.142,0,0,1,.14.143.146.146,0,0,1-.018.07.124.124,0,0,1,.059-.015.132.132,0,1,1-.115.07.137.137,0,0,1-.069.018.143.143,0,0,1-.143-.143.128.128,0,0,1,.01-.05.161.161,0,0,1-.06.012.148.148,0,0,1-.062-.014.147.147,0,0,1,.013.062.15.15,0,0,1-.012.06.153.153,0,0,1,.051-.01.143.143,0,0,1,.143.143.146.146,0,0,1-.018.069.129.129,0,0,1,.06-.015.131.131,0,0,1,0,.261Zm-1.43-1.679.016-.006h.055a.05.05,0,0,1,.023.012.029.029,0,0,1-.006-.01.1.1,0,0,1,0-.085l.007-.01a.051.051,0,0,1-.025.012H38.36a.074.074,0,0,1-.02-.006l-.01-.007.006.008a.1.1,0,0,1,0,.088l-.006.008A.024.024,0,0,1,38.343,4.594ZM40.055,4.5h-.01a.141.141,0,0,1-.032,0h-.024a.063.063,0,0,1-.024-.013.03.03,0,0,1,.007.01.1.1,0,0,1,0,.085.031.031,0,0,1-.007.01.051.051,0,0,1,.023-.012h.047a.074.074,0,0,1,.02.006l.012.008-.006-.009a.1.1,0,0,1,0-.088l.006-.008a.045.045,0,0,1-.01.01ZM39.582,5A.107.107,0,0,1,39.648,5l.01.007L39.652,5a.1.1,0,0,1-.006-.068.051.051,0,0,1,.013-.027.027.027,0,0,1-.011.007.1.1,0,0,1-.064.006.057.057,0,0,1-.029-.014.068.068,0,0,1,.013.027A.106.106,0,0,1,39.561,5l-.007.01A.054.054,0,0,1,39.582,5Zm.2-.207a.109.109,0,0,1,.067.006l.011.008-.007-.01a.1.1,0,0,1-.006-.068h0a.05.05,0,0,1,.012-.023l-.011.008a.107.107,0,0,1-.066.006.059.059,0,0,1-.027-.014.059.059,0,0,1,.012.026h0a.106.106,0,0,1-.006.066l-.007.011A.052.052,0,0,1,39.785,4.79Zm.067-.492-.021.006h-.048a.061.061,0,0,1-.025-.013.038.038,0,0,1,.007.01.107.107,0,0,1,.007.064h0a.058.058,0,0,1-.014.028.047.047,0,0,1,.024-.013.1.1,0,0,1,.07,0l.011.008a.063.063,0,0,1-.014-.027h0a.1.1,0,0,1,.007-.067l.006-.009-.012.01Zm-.2-.2a.1.1,0,0,1-.068.006.051.051,0,0,1-.027-.013.031.031,0,0,1,.007.01.1.1,0,0,1,.006.064.057.057,0,0,1-.014.031.052.052,0,0,1,.026-.013.108.108,0,0,1,.068,0l.011.008a.061.061,0,0,1-.014-.029.1.1,0,0,1,.006-.067.03.03,0,0,1,.007-.01.03.03,0,0,1-.007.01Zm-.2-.2a.1.1,0,0,1-.068.006.055.055,0,0,1-.027-.013l.008.01a.107.107,0,0,1,.006.066.055.055,0,0,1-.014.028.067.067,0,0,1,.027-.013.112.112,0,0,1,.068.006l.01.007a.059.059,0,0,1-.014-.027.1.1,0,0,1,.006-.067.031.031,0,0,1,.007-.01Zm-.426.006a.105.105,0,0,1-.069-.006l-.009-.006.008.01a.106.106,0,0,1,.007.024v.019a.087.087,0,0,1,0,.014.035.035,0,0,1,0,.009.055.055,0,0,1-.014.027l.01-.007a.1.1,0,0,1,.067-.006.057.057,0,0,1,.028.013.055.055,0,0,1-.014-.027.109.109,0,0,1,.006-.067l.008-.01a.058.058,0,0,1-.029.015Zm-.2.2a.1.1,0,0,1-.069-.006l-.01-.006a.022.022,0,0,1,.007.01.1.1,0,0,1,.006.067.051.051,0,0,1-.014.028l.01-.007a.109.109,0,0,1,.068-.006.063.063,0,0,1,.027.013.051.051,0,0,1-.014-.029.1.1,0,0,1,.006-.065.024.024,0,0,1,.007-.01.055.055,0,0,1-.027.015Zm-.2.209h-.038a.091.091,0,0,1-.034-.008l-.01-.007.006.009a.1.1,0,0,1,.006.067.057.057,0,0,1-.013.029l.013-.009a.106.106,0,0,1,.069-.006.06.06,0,0,1,.025.013.059.059,0,0,1-.014-.031.1.1,0,0,1,.006-.064.03.03,0,0,1,.007-.01.07.07,0,0,1-.026.017Zm-.069.493a.091.091,0,0,1,.027-.008h.043a.063.063,0,0,1,.024.013l-.007-.01a.106.106,0,0,1-.006-.069.055.055,0,0,1,.013-.026.059.059,0,0,1-.027.013.106.106,0,0,1-.068,0l-.01-.007a.05.05,0,0,1,.012.023.105.105,0,0,1-.006.072l-.006.009Zm.2.2A.1.1,0,0,1,38.815,5a.064.064,0,0,1,.026.013L38.833,5a.1.1,0,0,1,0-.07.049.049,0,0,1,.012-.024.054.054,0,0,1-.028.013.1.1,0,0,1-.067-.006l-.01-.007a.051.051,0,0,1,.012.023.123.123,0,0,1,0,.025h0v.012A.1.1,0,0,1,38.74,5l-.007.01Zm.2.2a.1.1,0,0,1,.07-.007h0a.052.052,0,0,1,.024.012.035.035,0,0,1-.007-.01.11.11,0,0,1,0-.072.044.044,0,0,1,.012-.022.064.064,0,0,1-.026.013h0a.1.1,0,0,1-.066-.007l-.01-.006a.061.061,0,0,1,.012.022v.013a.108.108,0,0,1,0,.016.133.133,0,0,1,0,.026.065.065,0,0,1-.006.018l-.007.01Zm.429-.008a.107.107,0,0,1,.066.007l.01.006a.035.035,0,0,1-.007-.01.1.1,0,0,1-.006-.068.064.064,0,0,1,.013-.026.031.031,0,0,1-.01.007.105.105,0,0,1-.063.006h0a.062.062,0,0,1-.028-.014.051.051,0,0,1,.012.025.1.1,0,0,1,0,.068.03.03,0,0,1-.007.011.06.06,0,0,1,.025-.013Zm.284.223.006,0,0-.008a.118.118,0,0,1,0-.1.051.051,0,0,1,.009-.013.046.046,0,0,1-.014.01.125.125,0,0,1-.093,0l-.01-.01a.065.065,0,0,1,.01.014.127.127,0,0,1,0,.094.05.05,0,0,1-.01.015.039.039,0,0,1,.013-.01.119.119,0,0,1,.1,0Zm.209-.2.006.006V5.218a.119.119,0,0,1,0-.1l.009-.013a.042.042,0,0,1-.015.01.125.125,0,0,1-.093,0,.046.046,0,0,1-.014-.01.05.05,0,0,1,.01.015.125.125,0,0,1,0,.093.071.071,0,0,1-.01.015.037.037,0,0,1,.013-.009A.117.117,0,0,1,39.87,5.219Zm.2-.2.008.006V5.014a.119.119,0,0,1,0-.1.057.057,0,0,1,.009-.014l-.015.01a.123.123,0,0,1-.094,0,.035.035,0,0,1-.014-.01.045.045,0,0,1,.01.016.125.125,0,0,1,0,.093l-.01.014a.034.034,0,0,1,.012-.009.123.123,0,0,1,.08-.006h0a.052.052,0,0,1,.014.009Zm.2-.2.009.006v0a.115.115,0,0,1-.009-.1.05.05,0,0,1,.009-.014.062.062,0,0,1-.016.01.123.123,0,0,1-.094,0,.054.054,0,0,1-.013-.01.058.058,0,0,1,.01.017.119.119,0,0,1,0,.092.063.063,0,0,1-.009.014l.012-.009a.121.121,0,0,1,.065-.01l.035.01Zm-.1-.518a.047.047,0,0,1-.012-.009.063.063,0,0,1,.009.014.119.119,0,0,1,0,.092.045.045,0,0,1-.01.016L40.17,4.4a.123.123,0,0,1,.094,0,.045.045,0,0,1,.016.01.051.051,0,0,1-.009-.013.115.115,0,0,1,.006-.105v0l-.009.006-.009,0-.018.006A.118.118,0,0,1,40.17,4.291Zm-.2-.2-.012-.009.01.014a.125.125,0,0,1,0,.093.042.042,0,0,1-.01.015l.014-.009a.123.123,0,0,1,.094,0,.05.05,0,0,1,.015.01.051.051,0,0,1-.009-.013.119.119,0,0,1,0-.1V4.079l-.007.006A.12.12,0,0,1,39.966,4.087Zm-.2-.2-.013-.009a.05.05,0,0,1,.01.015.125.125,0,0,1,0,.093A.071.071,0,0,1,39.75,4l.014-.01a.125.125,0,0,1,.093,0,.056.056,0,0,1,.015.01l-.009-.013a.122.122,0,0,1,0-.1l.006-.006-.006,0A.117.117,0,0,1,39.762,3.883Zm-.2-.2a.037.037,0,0,1-.013-.009.045.045,0,0,1,.01.016.125.125,0,0,1,0,.093.065.065,0,0,1-.01.014l.015-.01a.121.121,0,0,1,.093,0,.046.046,0,0,1,.014.01L39.66,3.78a.121.121,0,0,1,0-.1l.006-.008-.006,0A.114.114,0,0,1,39.558,3.679Zm-.2-.2a.046.046,0,0,1-.014-.01.062.062,0,0,1,.01.016.127.127,0,0,1,0,.094.08.08,0,0,1-.009.014.062.062,0,0,1,.016-.01.123.123,0,0,1,.092,0,.038.038,0,0,1,.014.01.063.063,0,0,1-.008-.012A.127.127,0,0,1,39.45,3.5l0-.017.006-.01a.033.033,0,0,1,.006-.009l0,0a.116.116,0,0,1-.106.006Zm-.2.211-.009-.006.008.011a.061.061,0,0,1,0,.014.161.161,0,0,1,0,.029.114.114,0,0,1,0,.016.023.023,0,0,1,0,.007.048.048,0,0,1-.013.027l.01-.006a.1.1,0,0,1,.085,0l.01.006a.056.056,0,0,1-.014-.026.04.04,0,0,0,0-.01.087.087,0,0,1,0-.014V3.711a.108.108,0,0,1,.006-.019l.008-.011-.009.006A.1.1,0,0,1,39.154,3.686Zm-.219-.217h0a.033.033,0,0,1,.006.009h0a.122.122,0,0,1,.01.035.12.12,0,0,1-.01.064.05.05,0,0,1-.008.013.035.035,0,0,1,.014-.01.125.125,0,0,1,.093,0,.043.043,0,0,1,.016.01.05.05,0,0,1-.009-.014.123.123,0,0,1,0-.094.062.062,0,0,1,.01-.016.053.053,0,0,1-.014.01A.118.118,0,0,1,38.935,3.469Zm-.2.2,0,0,.006.008a.072.072,0,0,1,.008.018v0a.121.121,0,0,1-.006.08.069.069,0,0,1-.008.013.038.038,0,0,1,.014-.01.119.119,0,0,1,.092,0,.062.062,0,0,1,.016.01.065.065,0,0,1-.01-.014.127.127,0,0,1,0-.094.05.05,0,0,1,.01-.015.046.046,0,0,1-.014.01.119.119,0,0,1-.1-.006Zm-.2.2-.006,0,0,.007a.118.118,0,0,1,0,.105A.057.057,0,0,1,38.523,4l.014-.01a.125.125,0,0,1,.093,0,.056.056,0,0,1,.015.01.05.05,0,0,1-.01-.015.125.125,0,0,1,0-.093.05.05,0,0,1,.01-.015l-.013.009a.122.122,0,0,1-.1-.006Zm-.2.2-.007-.006v.006a.119.119,0,0,1,0,.1.051.051,0,0,1-.009.013l.015-.01a.121.121,0,0,1,.093,0l.014.009a.042.042,0,0,1-.01-.015.125.125,0,0,1,0-.093.065.065,0,0,1,.01-.014l-.013.009a.118.118,0,0,1-.1,0Zm-.2.2-.008-.006v0a.115.115,0,0,1,.006.105.051.051,0,0,1-.009.013.05.05,0,0,1,.015-.01.123.123,0,0,1,.094,0,.045.045,0,0,1,.014.009.045.045,0,0,1-.01-.016.119.119,0,0,1,0-.092.062.062,0,0,1,.009-.014l-.012.009a.124.124,0,0,1-.08.007l-.013,0-.006-.006Zm.1.521.014.01a.086.086,0,0,1-.01-.017.131.131,0,0,1,0-.094.064.064,0,0,1,.011-.019.037.037,0,0,1-.016.01.125.125,0,0,1-.095,0,.047.047,0,0,1-.018-.011.086.086,0,0,1,.01.017.125.125,0,0,1-.006.106l0,.007.011-.008a.129.129,0,0,1,.1,0Zm.2.2a.056.056,0,0,1,.015.01.054.054,0,0,1-.01-.018.131.131,0,0,1,0-.094.059.059,0,0,1,.011-.018.051.051,0,0,1-.017.011.129.129,0,0,1-.095,0,.048.048,0,0,1-.018-.011.062.062,0,0,1,.01.016.129.129,0,0,1,0,.106l-.006.008a.027.027,0,0,1,.01-.007A.128.128,0,0,1,38.43,5.013Zm.2.2a.051.051,0,0,1,.015.01.064.064,0,0,1-.01-.018.129.129,0,0,1,0-.095.054.054,0,0,1,.01-.018.048.048,0,0,1-.018.011.137.137,0,0,1-.095,0A.051.051,0,0,1,38.52,5.1a.045.045,0,0,1,.01.016.125.125,0,0,1,0,.1l-.006.01.009-.006a.126.126,0,0,1,.1,0Zm.2.2a.037.037,0,0,1,.016.01.06.06,0,0,1-.011-.018.133.133,0,0,1,0-.095.05.05,0,0,1,.01-.017.059.059,0,0,1-.018.011.131.131,0,0,1-.094,0,.04.04,0,0,1-.017-.01.05.05,0,0,1,.01.015.131.131,0,0,1,0,.1l-.007.01.008-.006A.123.123,0,0,1,38.837,5.421Zm.2.2a.062.062,0,0,1,.016.01.048.048,0,0,1-.011-.018.131.131,0,0,1,0-.1.062.062,0,0,1,.01-.016.055.055,0,0,1-.019.011.131.131,0,0,1-.094,0,.059.059,0,0,1-.017-.01.056.056,0,0,1,.01.015.129.129,0,0,1,0,.1.036.036,0,0,1-.008.01l.007,0a.127.127,0,0,1,.105-.006Zm.2-.213.009.006a.027.027,0,0,1-.007-.011.08.08,0,0,1-.008-.031.053.053,0,0,1,0-.011.1.1,0,0,1,0-.027.035.035,0,0,0,0,0,.049.049,0,0,1,.011-.02l-.01.007a.1.1,0,0,1-.085,0l0-.007a.047.047,0,0,1,.011.021h0a.011.011,0,0,1,0,0,.1.1,0,0,1,0,.022.156.156,0,0,1,0,.034.049.049,0,0,1,0,.01.034.034,0,0,1-.007.011l.007-.006a.1.1,0,0,1,.084,0Zm.218.217h0l-.006-.008a.064.064,0,0,1-.006-.013.06.06,0,0,1,0-.013.12.12,0,0,1,.007-.08.045.045,0,0,1,.008-.012.051.051,0,0,1-.014.01.126.126,0,0,1-.092,0,.062.062,0,0,1-.016-.01.05.05,0,0,1,.009.014.123.123,0,0,1,0,.094.042.042,0,0,1-.01.015.045.045,0,0,1,.014-.009.116.116,0,0,1,.1.013Zm.625.707a.118.118,0,1,0-.034.084A.118.118,0,0,0,40.084,6.335Zm.168.181a.106.106,0,1,0-.106.106.106.106,0,0,0,.106-.106Zm.057.068a.094.094,0,1,0,.094.094.094.094,0,0,0-.094-.094Zm.167.179a.08.08,0,1,0,.08.08A.08.08,0,0,0,40.476,6.763Zm.15.155a.08.08,0,1,0,.08.08A.08.08,0,0,0,40.626,6.919Zm.133.143a.067.067,0,1,0,.067.067A.067.067,0,0,0,40.759,7.062Zm.116.13a.052.052,0,0,0-.053.052.053.053,0,1,0,.105,0A.052.052,0,0,0,40.875,7.192ZM37.529,3.781a.118.118,0,1,0-.034.084A.118.118,0,0,0,37.529,3.781Zm-.192-.18a.106.106,0,1,0-.106.106A.106.106,0,0,0,37.337,3.6Zm-.269-.068a.094.094,0,1,0-.092-.094A.094.094,0,0,0,37.068,3.532Zm-.252-.261a.08.08,0,1,0,.08-.08A.08.08,0,0,0,36.816,3.271Zm-.068-.227a.08.08,0,1,0,.08.08.08.08,0,0,0-.08-.08Zm-.133.011a.067.067,0,1,0-.046-.018.067.067,0,0,0,.046.018Zm-.113-.13a.053.053,0,0,0,.053-.052.054.054,0,0,0-.053-.053.053.053,0,0,0-.052.053A.052.052,0,0,0,36.5,2.925Zm1.112.771a.118.118,0,1,0-.118-.118A.118.118,0,0,0,37.615,3.7Zm-.18-.191a.106.106,0,1,0-.106-.106A.106.106,0,0,0,37.435,3.5Zm-.069-.269a.094.094,0,1,0-.027.066.094.094,0,0,0,.027-.066Zm-.343-.167a.08.08,0,1,0,.08-.08.08.08,0,0,0-.08.08Zm-.068-.227a.08.08,0,1,0,.057.077.08.08,0,0,0-.057-.077Zm-.133.01a.067.067,0,1,0-.066-.067.067.067,0,0,0,.066.067Zm-.116-.129a.053.053,0,1,0-.053-.053A.053.053,0,0,0,36.706,2.722Zm1.113.771a.12.12,0,1,0-.084-.035.119.119,0,0,0,.084.035ZM37.638,3.3a.107.107,0,1,0-.106-.106.107.107,0,0,0,.106.106Zm-.068-.269a.094.094,0,1,0-.027.066.094.094,0,0,0,.027-.066Zm-.343-.17a.08.08,0,1,0,.08-.08A.08.08,0,0,0,37.226,2.861Zm-.068-.227a.08.08,0,1,0,.089.03.08.08,0,0,0-.089-.03Zm-.133.01a.063.063,0,1,0-.048-.018.067.067,0,0,0,.048.018Zm-.116-.13a.052.052,0,0,0,.052-.052.053.053,0,0,0-.052-.053.054.054,0,0,0-.053.053.053.053,0,0,0,.053.055Zm1.112.773A.118.118,0,1,0,37.9,3.17.118.118,0,0,0,38.021,3.288Zm-.18-.192a.106.106,0,1,0-.075-.031.106.106,0,0,0,.075.031Zm-.069-.269a.093.093,0,1,0-.027.067.094.094,0,0,0,.027-.067Zm-.343-.167a.08.08,0,1,0,.08-.08.08.08,0,0,0-.08.08Zm-.068-.227a.08.08,0,1,0,.08.08.08.08,0,0,0-.08-.08Zm-.133.01a.067.067,0,1,0-.066-.064.067.067,0,0,0,.066.064Zm-.115-.129a.053.053,0,1,0-.052-.052A.052.052,0,0,0,37.113,2.314Zm1.112.771a.118.118,0,1,0-.118-.118A.118.118,0,0,0,38.226,3.085Zm-.18-.192a.106.106,0,1,0-.1-.106.106.106,0,0,0,.1.106Zm-.161-.363a.094.094,0,1,0,.092.091.094.094,0,0,0-.092-.091Zm-.17-.155a.08.08,0,1,0,.08.08A.08.08,0,0,0,37.715,2.374Zm-.149-.145a.08.08,0,1,0,.08.08A.08.08,0,0,0,37.566,2.229Zm-.133.01a.067.067,0,1,0-.067-.067A.067.067,0,0,0,37.433,2.24Zm-.116-.129a.05.05,0,1,0-.053-.053A.053.053,0,0,0,37.317,2.11Zm.993.653a.118.118,0,1,0,.035-.084A.119.119,0,0,0,38.311,2.763Zm-.168-.181a.107.107,0,1,0,.107-.106.107.107,0,0,0-.107.106Zm-.056-.068a.094.094,0,1,0-.094-.094A.094.094,0,0,0,38.087,2.514Zm-.167-.179a.08.08,0,1,0-.08-.08A.08.08,0,0,0,37.919,2.335Zm-.15-.155a.08.08,0,1,0-.057-.077A.08.08,0,0,0,37.769,2.179Zm-.133-.143a.067.067,0,1,0-.067-.067A.067.067,0,0,0,37.636,2.036Zm-.116-.13a.052.052,0,0,0,.052-.052.053.053,0,0,0-.052-.053.054.054,0,0,0-.053.053A.053.053,0,0,0,37.521,1.906Z" transform="translate(-33.753 -1.8)"/>
            </g>
          </g>
        </g>
      </g>
    </g>
  </g>
</svg>
