<svg xmlns="http://www.w3.org/2000/svg" xmlns:xlink="http://www.w3.org/1999/xlink" viewBox="59.98 59.98 88.03 88.02">
  <defs>
    <linearGradient id="linear-gradient" x1="0.099" y1="0.756" x2="0.9" y2="0.166" gradientUnits="objectBoundingBox">
      <stop offset="0" stop-color="#f7f735"/>
      <stop offset="1" stop-color="#c3f735"/>
    </linearGradient>
    <filter id="Subtraction_1" x="45" y="44.999" width="118" height="118.002" filterUnits="userSpaceOnUse">
      <feOffset input="SourceAlpha"/>
      <feGaussianBlur stdDeviation="5" result="blur"/>
      <feFlood flood-color="#f7f560" flood-opacity="0.4"/>
      <feComposite operator="in" in2="blur"/>
      <feComposite in="SourceGraphic"/>
    </filter>
    <filter id="Subtraction_2" x="0" y="0" width="208" height="208" filterUnits="userSpaceOnUse">
      <feOffset input="SourceAlpha"/>
      <feGaussianBlur stdDeviation="20" result="blur-2"/>
      <feFlood flood-color="#f7f560" flood-opacity="0.4"/>
      <feComposite operator="in" in2="blur-2"/>
      <feComposite in="SourceGraphic"/>
    </filter>
  </defs>
  <g id="LV1_1st_circle_-_S" data-name="LV1 / 1st / circle - S" transform="translate(60 59.999)">
    <g transform="matrix(1, 0, 0, 1, -60, -60)" filter="url(#Subtraction_1)">
      <path id="Subtraction_1-2" data-name="Subtraction 1" d="M44,88a43.789,43.789,0,0,1-24.6-7.515A44.127,44.127,0,0,1,3.458,61.127,43.944,43.944,0,0,1,7.515,19.4,44.128,44.128,0,0,1,26.873,3.458,43.943,43.943,0,0,1,68.6,7.515,44.129,44.129,0,0,1,84.542,26.874,43.943,43.943,0,0,1,80.485,68.6,44.135,44.135,0,0,1,61.126,84.544,43.728,43.728,0,0,1,44,88ZM44,1.69A42.117,42.117,0,0,0,20.343,8.916,42.442,42.442,0,0,0,5.013,27.532a42.252,42.252,0,0,0,3.9,40.125A42.448,42.448,0,0,0,27.53,82.988a42.25,42.25,0,0,0,40.126-3.9,42.44,42.44,0,0,0,15.33-18.615,42.254,42.254,0,0,0-3.9-40.126A42.429,42.429,0,0,0,60.469,5.015,42.046,42.046,0,0,0,44,1.69Z" transform="translate(60 60)" fill="url(#linear-gradient)"/>
    </g>
    <g transform="matrix(1, 0, 0, 1, -60, -60)" filter="url(#Subtraction_2)">
      <g id="Subtraction_2-2" data-name="Subtraction 2" transform="translate(60 60)" fill="url(#linear-gradient)">
        <path d="M 44.00009918212891 87.7510986328125 C 38.09371185302734 87.7510986328125 32.36413192749023 86.59436798095703 26.97053337097168 84.31301879882812 C 21.76085472106934 82.10947418212891 17.08202171325684 78.95485687255859 13.06398773193359 74.93677520751953 C 9.04601001739502 70.91873168945312 5.891454696655273 66.23987579345703 3.687954664230347 61.03018951416016 C 1.406688094139099 55.63667678833008 0.2499991804361343 49.90722274780273 0.2499991804361343 44.00099945068359 C 0.2499991804361343 38.09456634521484 1.406688094139099 32.364990234375 3.687954664230347 26.97143363952637 C 5.891443729400635 21.76171112060547 9.045999526977539 17.08287811279297 13.06398773193359 13.06488800048828 C 17.08197784423828 9.046899795532227 21.76081085205078 5.892343997955322 26.97053337097168 3.688854932785034 C 32.36408996582031 1.407588362693787 38.09366607666016 0.250899463891983 44.00009918212891 0.250899463891983 C 49.90653228759766 0.250899463891983 55.6361083984375 1.407588362693787 61.02966690063477 3.688854932785034 C 66.23938751220703 5.892343997955322 70.91822052001953 9.046899795532227 74.93621063232422 13.06488800048828 C 78.95420074462891 17.08287811279297 82.10875701904297 21.76171112060547 84.31224060058594 26.97143363952637 C 86.59351348876953 32.364990234375 87.75019836425781 38.09456634521484 87.75019836425781 44.00099945068359 C 87.75019836425781 49.90722274780273 86.59351348876953 55.63667678833008 84.31224060058594 61.03018951416016 C 82.10874176025391 66.23987579345703 78.95418548583984 70.91873168945312 74.93621063232422 74.93677520751953 C 70.91817474365234 78.95485687255859 66.23934173583984 82.10947418212891 61.02966690063477 84.31301879882812 C 55.63606643676758 86.59436798095703 49.90648651123047 87.7510986328125 44.00009918212891 87.7510986328125 Z M 44.00009918212891 2.251099348068237 C 38.36408996582031 2.251099348068237 32.89651107788086 3.354966163635254 27.74923324584961 5.53203296661377 C 22.77765464782715 7.634799480438232 18.31277656555176 10.64505481719971 14.47859954833984 14.47916603088379 C 10.64441013336182 18.31327629089355 7.634099006652832 22.77814483642578 5.531265735626221 27.7497444152832 C 3.354110240936279 32.89706802368164 2.25019907951355 38.36477661132812 2.25019907951355 44.00099945068359 C 2.25019907951355 49.63700103759766 3.354110240936279 55.10458755493164 5.531265735626221 60.25186538696289 C 7.634088039398193 65.22341918945312 10.64441013336182 69.68830871582031 14.47859954833984 73.52249908447266 C 18.31278800964355 77.356689453125 22.77767753601074 80.36701202392578 27.74923324584961 82.46983337402344 C 32.89651107788086 84.64698791503906 38.36409759521484 85.75090026855469 44.00009918212891 85.75090026855469 C 49.63632202148438 85.75090026855469 55.10403060913086 84.64698791503906 60.2513542175293 82.46983337402344 C 65.22295379638672 80.36699676513672 69.68782043457031 77.356689453125 73.52193450927734 73.52249908447266 C 77.35604095458984 69.68832397460938 80.36630249023438 65.22344207763672 82.46906280517578 60.25186538696289 C 84.64613342285156 55.10458755493164 85.75 49.63700866699219 85.75 44.00099945068359 C 85.75 38.36478805541992 84.64613342285156 32.89707565307617 82.46906280517578 27.7497444152832 C 80.36627960205078 22.77811050415039 77.35603332519531 18.3132438659668 73.52193450927734 14.47916603088379 C 69.68785095214844 10.6450662612915 65.22298431396484 7.634821891784668 60.2513542175293 5.53203296661377 C 55.10402297973633 3.354966163635254 49.63631057739258 2.251099348068237 44.00009918212891 2.251099348068237 Z" stroke="none"/>
        <path d="M 44.00009918212891 87.5010986328125 C 49.87285614013672 87.5010986328125 55.56965637207031 86.35101318359375 60.93227767944336 84.08277893066406 C 66.11215209960938 81.89183044433594 70.76427459716797 78.75520324707031 74.75942993164062 74.76000213623047 C 78.75453186035156 70.76483154296875 81.89109802246094 66.11268615722656 84.08200073242188 60.93280029296875 C 86.35015106201172 55.57026672363281 87.50019836425781 49.87358856201172 87.50019836425781 44.00099945068359 C 87.50019836425781 38.12821197509766 86.35015106201172 32.43140029907227 84.08200073242188 27.06882095336914 C 81.89111328125 21.8888988494873 78.75454711914062 17.23677635192871 74.75942993164062 13.24166584014893 C 70.76432037353516 9.246555328369141 66.11219787597656 6.109988212585449 60.93227767944336 3.919099569320679 C 55.56969833374023 1.650943875312805 49.87288665771484 0.5008994340896606 44.00009918212891 0.5008994340896606 C 38.12731170654297 0.5008994340896606 32.43050003051758 1.650943875312805 27.06792068481445 3.919099569320679 C 21.88799858093262 6.109988212585449 17.23587608337402 9.246555328369141 13.24076557159424 13.24166584014893 C 9.245655059814453 17.23677635192871 6.109087944030762 21.8888988494873 3.918199300765991 27.06882095336914 C 1.650043606758118 32.43140029907227 0.4999991953372955 38.12821197509766 0.4999991953372955 44.00099945068359 C 0.4999991953372955 49.87358856201172 1.650043606758118 55.57026672363281 3.918199300765991 60.93280029296875 C 6.109099388122559 66.11268615722656 9.245665550231934 70.76483154296875 13.24076557159424 74.76000213623047 C 17.23592185974121 78.75520324707031 21.8880443572998 81.89183044433594 27.06792068481445 84.08277893066406 C 32.4305419921875 86.35101318359375 38.12734222412109 87.5010986328125 44.00009918212891 87.5010986328125 M 44.00009918212891 2.001099348068237 C 49.66995620727539 2.001099348068237 55.17043304443359 3.111610651016235 60.3487434387207 5.301788330078125 C 65.35017395019531 7.417166233062744 69.84175109863281 10.44541072845459 73.69870758056641 14.30238819122314 C 77.55568695068359 18.15934371948242 80.58393096923828 22.65092086791992 82.69931030273438 27.65236663818359 C 84.88948822021484 32.83066558837891 86 38.33114242553711 86 44.00099945068359 C 86 49.670654296875 84.88948822021484 55.17099761962891 82.69931030273438 60.3492546081543 C 80.58394622802734 65.35062408447266 77.55570220947266 69.84222412109375 73.69870758056641 73.69926452636719 C 69.84172058105469 77.55633544921875 65.35014343261719 80.58464050292969 60.3487434387207 82.70008087158203 C 55.17043304443359 84.89034271240234 49.66995620727539 86.00090026855469 44.00009918212891 86.00090026855469 C 38.3304557800293 86.00090026855469 32.83010864257812 84.89034271240234 27.6518440246582 82.70008087158203 C 22.65048789978027 80.58465576171875 18.15888786315918 77.55634307861328 14.3018217086792 73.69927978515625 C 10.4447546005249 69.84220886230469 7.416443824768066 65.35060882568359 5.301021575927734 60.3492546081543 C 3.110754728317261 55.17098999023438 2.00019907951355 49.6706428527832 2.00019907951355 44.00099945068359 C 2.00019907951355 38.33114242553711 3.110754728317261 32.83066558837891 5.301021575927734 27.6523551940918 C 7.416454792022705 22.65095520019531 10.4447660446167 18.15937805175781 14.3018217086792 14.30238819122314 C 18.15887641906738 10.44539928436279 22.65047645568848 7.417154788970947 27.6518440246582 5.301788330078125 C 32.83010101318359 3.111610651016235 38.3304443359375 2.001099348068237 44.00009918212891 2.001099348068237 M 44.00009918212891 88.0010986328125 C 38.06006622314453 88.0010986328125 32.29773330688477 86.83772277832031 26.87314414978027 84.54327392578125 C 21.6336555480957 82.32711791992188 16.92811012268066 79.15450286865234 12.88720989227295 75.11355590820312 C 8.846354484558105 71.0726318359375 5.673810482025146 66.36708068847656 3.457699298858643 61.12757873535156 C 1.163332462310791 55.70306777954102 -8.178710686479462e-07 49.94085311889648 -8.178710686479462e-07 44.00099945068359 C -8.178710686479462e-07 38.06094360351562 1.163332462310791 32.29859924316406 3.457699298858643 26.87404441833496 C 5.673788070678711 21.63454437255859 8.846332550048828 16.92898750305176 12.88720989227295 12.88811016082764 C 16.92808723449707 8.847232818603516 21.63364410400391 5.674688339233398 26.87314414978027 3.45859956741333 C 32.29769897460938 1.164232730865479 38.06004333496094 0.0008994506788440049 44.00009918212891 0.0008994506788440049 C 49.94015502929688 0.0008994506788440049 55.70249938964844 1.164232730865479 61.12705612182617 3.45859956741333 C 66.36655426025391 5.674688339233398 71.07211303710938 8.847232818603516 75.11299133300781 12.88811016082764 C 79.15386962890625 16.92898750305176 82.32640838623047 21.63454437255859 84.54249572753906 26.87404441833496 C 86.83686828613281 32.29859924316406 88.00019836425781 38.06094360351562 88.00019836425781 44.00099945068359 C 88.00019836425781 49.94085311889648 86.83686828613281 55.70306777954102 84.54249572753906 61.12757873535156 C 82.32638549804688 66.36708068847656 79.15384674072266 71.0726318359375 75.11299133300781 75.11355590820312 C 71.07209014892578 79.15450286865234 66.36654663085938 82.32711791992188 61.12705612182617 84.54327392578125 C 55.70246505737305 86.83772277832031 49.94013214111328 88.0010986328125 44.00009918212891 88.0010986328125 Z M 44.00009918212891 2.501099348068237 C 38.39773178100586 2.501099348068237 32.96290969848633 3.598321676254272 27.84662055969238 5.762288570404053 C 22.90483283996582 7.852455139160156 18.46665382385254 10.84472179412842 14.65537738800049 14.65594387054443 C 10.84406566619873 18.46717643737793 7.851743698120117 22.90533256530762 5.761521339416504 27.84713363647461 C 3.597465753555298 32.96347808837891 2.50019907951355 38.39842224121094 2.50019907951355 44.00099945068359 C 2.50019907951355 49.60336685180664 3.597465753555298 55.03817749023438 5.761521339416504 60.15447616577148 C 7.851743698120117 65.09624481201172 10.84407711029053 69.534423828125 14.65537738800049 73.34571838378906 C 18.46667671203613 77.15702056884766 22.90485382080078 80.14935302734375 27.84662055969238 82.23957824707031 C 32.96292114257812 84.40363311767578 38.39773178100586 85.50090026855469 44.00009918212891 85.50090026855469 C 49.60267639160156 85.50090026855469 55.03762054443359 84.40363311767578 60.15396499633789 82.23957824707031 C 65.09576416015625 80.14935302734375 69.53392028808594 77.15703582763672 73.34515380859375 73.34571838378906 C 77.15637969970703 69.53444671630859 80.14864349365234 65.09626770019531 82.23880767822266 60.15447616577148 C 84.40277862548828 55.03818893432617 85.5 49.60336685180664 85.5 44.00099945068359 C 85.5 38.39842224121094 84.40277862548828 32.96347808837891 82.23880767822266 27.84713363647461 C 80.14864349365234 22.90532112121582 77.15638732910156 18.46715545654297 73.34515380859375 14.65594387054443 C 69.53394317626953 10.84471035003662 65.09577941894531 7.852455139160156 60.15396499633789 5.762288570404053 C 55.03762054443359 3.598321676254272 49.60267639160156 2.501099348068237 44.00009918212891 2.501099348068237 Z" stroke="none" fill="#ffff65"/>
      </g>
    </g>
  </g>
</svg>