<svg xmlns="http://www.w3.org/2000/svg" xmlns:xlink="http://www.w3.org/1999/xlink" width="132" height="132.002" viewBox="0 0 132 132.002">
  <defs>
    <linearGradient id="linear-gradient" x1="0.099" y1="0.756" x2="0.9" y2="0.166" gradientUnits="objectBoundingBox">
      <stop offset="0" stop-color="#f7f735"/>
      <stop offset="1" stop-color="#c3f735"/>
    </linearGradient>
  </defs>
  <g id="Subtraction_2" data-name="Subtraction 2" transform="translate(-2767.5 -8172.718)" fill="url(#linear-gradient)">
    <path d="M 2833.49853515625 8304.4697265625 C 2824.623291015625 8304.4697265625 2816.012939453125 8302.7314453125 2807.90673828125 8299.302734375 C 2804.009033203125 8297.6533203125 2800.25146484375 8295.61328125 2796.738525390625 8293.240234375 C 2793.260498046875 8290.890625 2789.986328125 8288.189453125 2787.007568359375 8285.2119140625 C 2784.032470703125 8282.236328125 2781.331298828125 8278.9619140625 2778.978759765625 8275.48046875 C 2776.60400390625 8271.96484375 2774.564208984375 8268.20703125 2772.916748046875 8264.310546875 C 2769.48828125 8256.205078125 2767.749755859375 8247.5947265625 2767.749755859375 8238.71875 C 2767.749755859375 8229.841796875 2769.48828125 8221.2314453125 2772.916748046875 8213.1259765625 C 2774.564208984375 8209.23046875 2776.603759765625 8205.47265625 2778.97900390625 8201.9560546875 C 2781.33447265625 8198.470703125 2784.035888671875 8195.197265625 2787.007568359375 8192.2255859375 C 2789.982421875 8189.25048828125 2793.256591796875 8186.54931640625 2796.738525390625 8184.19677734375 C 2800.252685546875 8181.82275390625 2804.01025390625 8179.78271484375 2807.90673828125 8178.134765625 C 2816.012939453125 8174.7060546875 2824.623291015625 8172.9677734375 2833.49853515625 8172.9677734375 C 2842.3740234375 8172.9677734375 2850.98486328125 8174.7060546875 2859.091552734375 8178.134765625 C 2862.98828125 8179.783203125 2866.745849609375 8181.82275390625 2870.260009765625 8184.19677734375 C 2873.74169921875 8186.54931640625 2877.015869140625 8189.25048828125 2879.9912109375 8192.2255859375 C 2882.96337890625 8195.197265625 2885.664794921875 8198.4716796875 2888.02001953125 8201.9560546875 C 2890.394775390625 8205.47265625 2892.434326171875 8209.23046875 2894.082275390625 8213.1259765625 C 2897.5107421875 8221.2314453125 2899.249267578125 8229.841796875 2899.249267578125 8238.71875 C 2899.249267578125 8247.5947265625 2897.5107421875 8256.205078125 2894.082275390625 8264.310546875 C 2892.4345703125 8268.20703125 2890.39501953125 8271.96484375 2888.019775390625 8275.48046875 C 2885.66748046875 8278.9619140625 2882.96630859375 8282.236328125 2879.9912109375 8285.2119140625 C 2877.014892578125 8288.1875 2873.74072265625 8290.888671875 2870.260009765625 8293.240234375 C 2866.743408203125 8295.615234375 2862.98583984375 8297.6552734375 2859.091552734375 8299.302734375 C 2850.98486328125 8302.7314453125 2842.3740234375 8304.4697265625 2833.49853515625 8304.4697265625 Z M 2833.49853515625 8175.00244140625 C 2824.897705078125 8175.00244140625 2816.553466796875 8176.68701171875 2808.69775390625 8180.009765625 C 2804.924072265625 8181.60546875 2801.282470703125 8183.58203125 2797.87451171875 8185.884765625 C 2794.500732421875 8188.16357421875 2791.328125 8190.78125 2788.44482421875 8193.6650390625 C 2785.562744140625 8196.546875 2782.945068359375 8199.7197265625 2780.664306640625 8203.095703125 C 2778.36376953125 8206.4990234375 2776.38720703125 8210.140625 2774.789794921875 8213.91796875 C 2771.467041015625 8221.7744140625 2769.7822265625 8230.119140625 2769.7822265625 8238.720703125 C 2769.7822265625 8247.3212890625 2771.467041015625 8255.666015625 2774.789794921875 8263.521484375 C 2776.388427734375 8267.2998046875 2778.364990234375 8270.94140625 2780.66455078125 8274.34375 C 2782.9443359375 8277.71875 2785.56201171875 8280.8916015625 2788.44482421875 8283.7734375 C 2791.328125 8286.65625 2794.500732421875 8289.2744140625 2797.87451171875 8291.5537109375 C 2801.282470703125 8293.8564453125 2804.923828125 8295.833984375 2808.69775390625 8297.4296875 C 2816.552001953125 8300.751953125 2824.896240234375 8302.4365234375 2833.49853515625 8302.4365234375 C 2842.101318359375 8302.4365234375 2850.44580078125 8300.751953125 2858.300537109375 8297.4296875 C 2862.074462890625 8295.833984375 2865.716064453125 8293.8564453125 2869.1240234375 8291.5537109375 C 2872.498046875 8289.2744140625 2875.6708984375 8286.6572265625 2878.553955078125 8283.7734375 C 2881.43701171875 8280.890625 2884.0546875 8277.7177734375 2886.334716796875 8274.34375 C 2888.634521484375 8270.9404296875 2890.611083984375 8267.2998046875 2892.209228515625 8263.521484375 C 2895.531982421875 8255.666015625 2897.216796875 8247.3212890625 2897.216796875 8238.720703125 C 2897.216796875 8230.119140625 2895.531982421875 8221.7744140625 2892.209228515625 8213.91796875 C 2890.611083984375 8210.1396484375 2888.634521484375 8206.4990234375 2886.33447265625 8203.095703125 C 2884.0546875 8199.720703125 2881.43701171875 8196.5478515625 2878.553955078125 8193.6650390625 C 2875.6708984375 8190.78173828125 2872.498046875 8188.1640625 2869.1240234375 8185.884765625 C 2865.715576171875 8183.58203125 2862.073974609375 8181.60546875 2858.300537109375 8180.009765625 C 2850.4443359375 8176.68701171875 2842.099853515625 8175.00244140625 2833.49853515625 8175.00244140625 Z" stroke="none"/>
    <path d="M 2833.49853515625 8304.2197265625 C 2842.340576171875 8304.2197265625 2850.91845703125 8302.48828125 2858.994140625 8299.072265625 C 2862.87353515625 8297.431640625 2866.61669921875 8295.3994140625 2870.1201171875 8293.033203125 C 2873.587646484375 8290.6904296875 2876.849365234375 8288 2879.814453125 8285.03515625 C 2882.7783203125 8282.0703125 2885.46923828125 8278.80859375 2887.812744140625 8275.33984375 C 2890.1787109375 8271.837890625 2892.210693359375 8268.0947265625 2893.85205078125 8264.2138671875 C 2897.267578125 8256.138671875 2898.999267578125 8247.560546875 2898.999267578125 8238.71875 C 2898.999267578125 8229.8759765625 2897.267578125 8221.2978515625 2893.85205078125 8213.22265625 C 2892.21044921875 8209.3427734375 2890.178466796875 8205.5986328125 2887.812744140625 8202.0966796875 C 2885.466552734375 8198.625 2882.775390625 8195.36328125 2879.814453125 8192.40234375 C 2876.850341796875 8189.4384765625 2873.588623046875 8186.74755859375 2870.1201171875 8184.404296875 C 2866.619384765625 8182.0390625 2862.8759765625 8180.00732421875 2858.994140625 8178.36474609375 C 2850.91845703125 8174.94970703125 2842.34033203125 8173.2177734375 2833.49853515625 8173.2177734375 C 2824.656982421875 8173.2177734375 2816.079345703125 8174.94970703125 2808.004150390625 8178.36474609375 C 2804.12255859375 8180.0068359375 2800.37939453125 8182.03857421875 2796.878662109375 8184.40380859375 C 2793.40966796875 8186.74755859375 2790.14794921875 8189.4384765625 2787.184326171875 8192.40234375 C 2784.223876953125 8195.3623046875 2781.53271484375 8198.6240234375 2779.18603515625 8202.0966796875 C 2776.820068359375 8205.599609375 2774.7880859375 8209.3427734375 2773.14697265625 8213.22265625 C 2769.7314453125 8221.2978515625 2767.999755859375 8229.8759765625 2767.999755859375 8238.71875 C 2767.999755859375 8247.560546875 2769.7314453125 8256.138671875 2773.14697265625 8264.2138671875 C 2774.788330078125 8268.0947265625 2776.820068359375 8271.837890625 2779.18603515625 8275.33984375 C 2781.529541015625 8278.80859375 2784.220458984375 8282.0703125 2787.184326171875 8285.03515625 C 2790.15185546875 8288.001953125 2793.41357421875 8290.6923828125 2796.878662109375 8293.033203125 C 2800.3779296875 8295.3974609375 2804.12109375 8297.4296875 2808.004150390625 8299.072265625 C 2816.079345703125 8302.48828125 2824.656982421875 8304.2197265625 2833.49853515625 8304.2197265625 M 2833.49853515625 8174.75244140625 C 2842.133544921875 8174.75244140625 2850.5107421875 8176.44384765625 2858.39794921875 8179.77978515625 C 2862.186279296875 8181.3818359375 2865.842041015625 8183.36572265625 2869.263916015625 8185.67724609375 C 2872.651123046875 8187.9658203125 2875.83642578125 8190.59375 2878.730712890625 8193.48828125 C 2881.625 8196.3828125 2884.2529296875 8199.568359375 2886.541748046875 8202.955078125 C 2888.850830078125 8206.3720703125 2890.8349609375 8210.0283203125 2892.439453125 8213.8212890625 C 2895.775390625 8221.7080078125 2897.466796875 8230.0859375 2897.466796875 8238.720703125 C 2897.466796875 8247.35546875 2895.775390625 8255.732421875 2892.439453125 8263.6181640625 C 2890.8349609375 8267.4111328125 2888.850830078125 8271.0673828125 2886.541748046875 8274.484375 C 2884.2529296875 8277.87109375 2881.625 8281.056640625 2878.730712890625 8283.9501953125 C 2875.83642578125 8286.8447265625 2872.6513671875 8289.47265625 2869.26416015625 8291.7607421875 C 2865.8427734375 8294.0732421875 2862.186767578125 8296.0576171875 2858.39794921875 8297.66015625 C 2850.51220703125 8300.9951171875 2842.135009765625 8302.6865234375 2833.49853515625 8302.6865234375 C 2824.862548828125 8302.6865234375 2816.485595703125 8300.9951171875 2808.600341796875 8297.66015625 C 2804.8115234375 8296.0576171875 2801.15576171875 8294.0732421875 2797.734375 8291.7607421875 C 2794.347412109375 8289.47265625 2791.16259765625 8286.8447265625 2788.26806640625 8283.9501953125 C 2785.3740234375 8281.056640625 2782.74609375 8277.8720703125 2780.457275390625 8274.484375 C 2778.148681640625 8271.068359375 2776.16455078125 8267.412109375 2774.5595703125 8263.6181640625 C 2771.2236328125 8255.732421875 2769.5322265625 8247.35546875 2769.5322265625 8238.720703125 C 2769.5322265625 8230.0859375 2771.2236328125 8221.7080078125 2774.5595703125 8213.8212890625 C 2776.163330078125 8210.0283203125 2778.147705078125 8206.373046875 2780.457275390625 8202.955078125 C 2782.746826171875 8199.56640625 2785.374755859375 8196.380859375 2788.26806640625 8193.48828125 C 2791.16259765625 8190.59326171875 2794.347412109375 8187.96533203125 2797.734619140625 8185.67724609375 C 2801.156005859375 8183.3662109375 2804.811767578125 8181.3818359375 2808.600341796875 8179.77978515625 C 2816.487060546875 8176.44384765625 2824.864013671875 8174.75244140625 2833.49853515625 8174.75244140625 M 2833.49853515625 8304.7197265625 C 2824.58935546875 8304.7197265625 2815.9462890625 8302.974609375 2807.809326171875 8299.533203125 C 2803.89990234375 8297.87890625 2800.1279296875 8295.83203125 2796.5986328125 8293.447265625 C 2793.10546875 8291.087890625 2789.819091796875 8288.3759765625 2786.830810546875 8285.388671875 C 2783.84326171875 8282.400390625 2781.1318359375 8279.11328125 2778.771728515625 8275.6201171875 C 2776.387451171875 8272.0908203125 2774.340087890625 8268.318359375 2772.6865234375 8264.408203125 C 2769.244873046875 8256.271484375 2767.499755859375 8247.6279296875 2767.499755859375 8238.71875 C 2767.499755859375 8229.80859375 2769.244873046875 8221.1650390625 2772.6865234375 8213.0283203125 C 2774.341064453125 8209.1162109375 2776.388427734375 8205.3447265625 2778.771728515625 8201.81640625 C 2781.134521484375 8198.3203125 2783.845947265625 8195.033203125 2786.830810546875 8192.048828125 C 2789.817138671875 8189.0625 2793.103515625 8186.35107421875 2796.5986328125 8183.98974609375 C 2800.126708984375 8181.60595703125 2803.898681640625 8179.55859375 2807.809326171875 8177.904296875 C 2815.9462890625 8174.462890625 2824.58935546875 8172.7177734375 2833.49853515625 8172.7177734375 C 2842.407958984375 8172.7177734375 2851.051513671875 8174.462890625 2859.18896484375 8177.904296875 C 2863.10009765625 8179.55908203125 2866.8720703125 8181.6064453125 2870.39990234375 8183.98974609375 C 2873.89501953125 8186.35107421875 2877.181396484375 8189.0625 2880.16796875 8192.048828125 C 2883.152587890625 8195.033203125 2885.8642578125 8198.3203125 2888.22705078125 8201.81640625 C 2890.6103515625 8205.3447265625 2892.65771484375 8209.1162109375 2894.3125 8213.0283203125 C 2897.754150390625 8221.1650390625 2899.499267578125 8229.80859375 2899.499267578125 8238.71875 C 2899.499267578125 8247.6279296875 2897.754150390625 8256.271484375 2894.3125 8264.408203125 C 2892.658935546875 8268.318359375 2890.611572265625 8272.0908203125 2888.22705078125 8275.6201171875 C 2885.866943359375 8279.11328125 2883.155517578125 8282.400390625 2880.16796875 8285.388671875 C 2877.179443359375 8288.376953125 2873.89306640625 8291.087890625 2870.39990234375 8293.447265625 C 2866.870849609375 8295.8310546875 2863.098876953125 8297.87890625 2859.18896484375 8299.533203125 C 2851.051513671875 8302.974609375 2842.407958984375 8304.7197265625 2833.49853515625 8304.7197265625 Z M 2833.49853515625 8175.25244140625 C 2824.93115234375 8175.25244140625 2816.61962890625 8176.9306640625 2808.795166015625 8180.240234375 C 2805.036376953125 8181.82958984375 2801.4091796875 8183.79833984375 2798.014404296875 8186.091796875 C 2794.65380859375 8188.36181640625 2791.49365234375 8190.96923828125 2788.62158203125 8193.841796875 C 2785.751220703125 8196.7119140625 2783.143798828125 8199.8720703125 2780.87158203125 8203.2353515625 C 2778.580078125 8206.6259765625 2776.611328125 8210.2529296875 2775.02001953125 8214.015625 C 2771.71044921875 8221.8408203125 2770.0322265625 8230.15234375 2770.0322265625 8238.720703125 C 2770.0322265625 8247.2880859375 2771.71044921875 8255.599609375 2775.02001953125 8263.423828125 C 2776.611328125 8267.185546875 2778.580078125 8270.8134765625 2780.87158203125 8274.2041015625 C 2783.142333984375 8277.5654296875 2785.749755859375 8280.7255859375 2788.62158203125 8283.5966796875 C 2791.49365234375 8286.46875 2794.65380859375 8289.076171875 2798.014404296875 8291.3466796875 C 2801.406005859375 8293.638671875 2805.032958984375 8295.6083984375 2808.795166015625 8297.19921875 C 2816.618896484375 8300.5087890625 2824.93017578125 8302.1865234375 2833.49853515625 8302.1865234375 C 2842.067138671875 8302.1865234375 2850.37890625 8300.5087890625 2858.203125 8297.19921875 C 2861.965087890625 8295.6083984375 2865.59228515625 8293.638671875 2868.984130859375 8291.3466796875 C 2872.34521484375 8289.076171875 2875.50537109375 8286.46875 2878.377197265625 8283.5966796875 C 2881.24951171875 8280.724609375 2883.85693359375 8277.564453125 2886.12744140625 8274.2041015625 C 2888.41943359375 8270.8125 2890.38818359375 8267.1845703125 2891.97900390625 8263.423828125 C 2895.28857421875 8255.599609375 2896.966796875 8247.2880859375 2896.966796875 8238.720703125 C 2896.966796875 8230.1533203125 2895.28857421875 8221.8408203125 2891.97900390625 8214.015625 C 2890.38818359375 8210.2548828125 2888.41943359375 8206.626953125 2886.12744140625 8203.2353515625 C 2883.855712890625 8199.873046875 2881.248046875 8196.712890625 2878.377197265625 8193.841796875 C 2875.50537109375 8190.9697265625 2872.34521484375 8188.3623046875 2868.984130859375 8186.091796875 C 2865.589111328125 8183.79833984375 2861.9619140625 8181.82958984375 2858.203125 8180.240234375 C 2850.378173828125 8176.9306640625 2842.06640625 8175.25244140625 2833.49853515625 8175.25244140625 Z" stroke="none" fill="#ffff65"/>
  </g>
</svg>
