<svg xmlns="http://www.w3.org/2000/svg" width="21" height="21" viewBox="0 0 21 21">
  <path id="download" d="M8.859,0h3.281a.982.982,0,0,1,.984.984V7.875h3.6a.819.819,0,0,1,.578,1.4l-6.238,6.243a.8.8,0,0,1-1.12,0L3.7,9.274a.819.819,0,0,1,.578-1.4h3.6V.984A.982.982,0,0,1,8.859,0ZM21,15.422v4.594a.982.982,0,0,1-.984.984H.984A.982.982,0,0,1,0,20.016V15.422a.982.982,0,0,1,.984-.984H7l2.01,2.01a2.1,2.1,0,0,0,2.978,0L14,14.438h6.017A.982.982,0,0,1,21,15.422Zm-5.086,3.609a.82.82,0,1,0-.82.82A.823.823,0,0,0,15.914,19.031Zm2.625,0a.82.82,0,1,0-.82.82A.823.823,0,0,0,18.539,19.031Z" fill="rgba(255,255,255,0.7)"/>
</svg>
