<svg xmlns="http://www.w3.org/2000/svg" width="12.193" height="14.223" viewBox="0 0 12.193 14.223">
  <path id="Path_16977" data-name="Path 16977" d="M46.973,4.854l1.109,1.6H46.827l-1.109-1.6H44.132l1.109,1.6H43.987l-1.109-1.6H41.292l1.109,1.6H41.147l-1.109-1.6H38.451l1.109,1.6H38.306L37.237,4.912,48.289,1.829l-.125-.446-.026-.1L47.965.671A.921.921,0,0,0,47.118,0l-.6,1.74-1.208.337.622-1.8L44.4.7,43.78,2.5l-1.208.337.622-1.8-1.528.426-.622,1.8L39.836,3.6l.622-1.8-1.528.426-.622,1.8L37.1,4.367l.622-1.8-.514.144a.925.925,0,0,0-.642,1.139l.172.616-.036.01.151.541.037-.01V13.3a.925.925,0,0,0,.925.925H47.8a.924.924,0,0,0,.925-.925V4.854H46.973Z" transform="translate(-36.531 0)" fill="#b6b6b6"/>
</svg>
