<svg id="Group_11378" data-name="Group 11378" xmlns="http://www.w3.org/2000/svg" xmlns:xlink="http://www.w3.org/1999/xlink" width="16.169" height="18.536" viewBox="0 0 16.169 18.536">
  <defs>
    <clipPath id="clip-path">
      <rect id="Rectangle_3481" data-name="Rectangle 3481" width="16.169" height="18.536" fill="#bababa"/>
    </clipPath>
  </defs>
  <g id="Group_11378-2" data-name="Group 11378" clip-path="url(#clip-path)">
    <path id="Path_17256" data-name="Path 17256" d="M15.27,0H4.821A2.5,2.5,0,0,0,3.288.635L.635,3.288A2.5,2.5,0,0,0,0,4.821V17.638a.9.9,0,0,0,.9.9H15.27a.9.9,0,0,0,.9-.9V.9a.9.9,0,0,0-.9-.9M10.3,14.453a.137.137,0,0,1-.137.137H3.642a.138.138,0,0,1-.138-.137v-.6a.138.138,0,0,1,.138-.138h6.524a.137.137,0,0,1,.137.138Zm2.362-2.765a.16.16,0,0,1-.16.16H3.664a.16.16,0,0,1-.16-.16v-.561a.16.16,0,0,1,.16-.16H12.5a.16.16,0,0,1,.16.16Zm0-2.743a.16.16,0,0,1-.16.16H3.664a.16.16,0,0,1-.16-.16V8.385a.16.16,0,0,1,.16-.16H12.5a.16.16,0,0,1,.16.16Zm0-2.743a.16.16,0,0,1-.16.16H3.664A.16.16,0,0,1,3.5,6.2V5.642a.16.16,0,0,1,.16-.16H12.5a.16.16,0,0,1,.16.16Z" fill="#bababa"/>
  </g>
</svg>
